<svg width="597" height="380" viewBox="0 0 597 380" fill="none" xmlns="http://www.w3.org/2000/svg">
    <path d="M589.027 0H287.044L285.8 3.96956L170.916 372.628L168.626 380H295.357L296.601 376.031L374.896 124.814H557.84L559.084 120.845L594.456 7.37204L596.747 0H589.056H589.027Z" fill="#CDDDE6" fill-opacity="0.2"/>
    <path d="M532.139 182.6H413.099L411.855 186.569L353.862 372.628L351.571 380H448.811C466.455 380 481.837 368.659 487.096 351.76L537.512 189.943L539.802 182.571H532.111L532.139 182.6ZM473.298 364.094C473.298 364.094 473.411 363.98 473.439 363.924C473.383 363.98 473.326 364.037 473.298 364.094Z" fill="#CDDDE6" fill-opacity="0.2"/>
    <path d="M166.142 182.599H47.1013L45.8571 186.569L1.86032 327.772C-1.98516 340.106 0.192065 353.177 7.82648 363.611C15.4609 374.045 27.2518 380 40.1455 380H112.305L113.549 376.03L171.542 189.971L173.832 182.599H166.142Z" fill="#CDDDE6" fill-opacity="0.2"/>
    <path d="M223.032 0H133.483C115.839 0 100.457 11.3416 95.1975 28.2406L67.4026 117.442L65.1123 124.814H191.844L193.088 120.845L228.432 7.37204L230.722 0H223.032Z" fill="#CDDDE6" fill-opacity="0.2"/>
</svg>
