<svg width="345" height="57" viewBox="0 0 345 57" fill="none" xmlns="http://www.w3.org/2000/svg">
    <g clip-path="url(#clip0_1_9627)">
        <path d="M88.9093 0.122314H43.6367L43.4502 0.712246L26.2271 55.5L25.8838 56.5956H44.883L45.0695 56.0057L56.8073 18.6714H84.2337L84.4202 18.0815L89.7232 1.2179L90.0666 0.122314H88.9136H88.9093Z" fill="#D82D32"/>
        <path d="M80.3808 27.2591H62.5346L62.3481 27.849L53.6539 55.5L53.3105 56.5955H67.8885C70.5336 56.5955 72.8396 54.91 73.6281 52.3986L81.1862 28.3505L81.5296 27.2549H80.3766L80.3808 27.2591ZM71.5595 54.2316C71.5595 54.2316 71.5764 54.2147 71.5807 54.2063C71.5722 54.2147 71.5637 54.2232 71.5595 54.2316Z" fill="#104076"/>
        <path d="M25.511 27.2592H7.66482L7.4783 27.8491L0.882411 48.8338C0.305906 50.6668 0.63231 52.6093 1.77684 54.16C2.92137 55.7107 4.68904 56.5956 6.62202 56.5956H17.44L17.6265 56.0057L26.3207 28.3547L26.664 27.2592H25.511Z" fill="#104076"/>
        <path d="M34.0401 0.122314H20.6152C17.97 0.122314 15.664 1.80783 14.8755 4.31925L10.7086 17.5758L10.3652 18.6714H29.3645L29.551 18.0815L34.8497 1.2179L35.1931 0.122314H34.0401Z" fill="#D82D32"/>
        <path d="M94.2207 12.9237V12.0641H99.3838V12.9237H97.3025V18.6924H96.2978V12.9237H94.2207Z" fill="#104076"/>
        <path d="M101.436 18.6924V12.0599H103.814C104.331 12.0599 104.763 12.1526 105.102 12.3423C105.441 12.5319 105.696 12.7889 105.865 13.1134C106.035 13.4378 106.12 13.8044 106.12 14.209C106.12 14.6135 106.035 14.9843 105.865 15.3088C105.696 15.6332 105.441 15.8903 105.098 16.0799C104.755 16.2695 104.327 16.3622 103.809 16.3622H102.177V15.5152H103.72C104.047 15.5152 104.314 15.4563 104.517 15.3425C104.721 15.2287 104.873 15.0728 104.967 14.879C105.06 14.6851 105.111 14.4576 105.111 14.209C105.111 13.9604 105.06 13.737 104.967 13.5432C104.873 13.3494 104.721 13.1977 104.517 13.0839C104.31 12.9743 104.043 12.9196 103.708 12.9196H102.444V18.6924H101.436Z" fill="#104076"/>
        <path d="M108.069 18.6923H107.001L109.4 12.0598H110.566L112.965 18.6923H111.897L110.011 13.265H109.96L108.069 18.6923ZM108.247 16.0966H111.711V16.9394H108.247V16.0966Z" fill="#104076"/>
        <path d="M114.844 18.6923V12.0598H115.853V14.942H119.176V12.0598H120.185V18.6923H119.176V15.8017H115.853V18.6923H114.844Z" fill="#104076"/>
        <path d="M128.111 14.2174H127.094C127.056 13.9983 126.984 13.8129 126.873 13.6486C126.767 13.4842 126.64 13.3452 126.483 13.2314C126.331 13.1176 126.157 13.0292 125.966 12.9744C125.775 12.9196 125.576 12.8859 125.36 12.8859C124.978 12.8859 124.631 12.9828 124.33 13.1766C124.029 13.3705 123.787 13.6486 123.613 14.0236C123.44 14.3986 123.351 14.8495 123.351 15.3847C123.351 15.9198 123.44 16.3791 123.613 16.7499C123.787 17.1207 124.029 17.4031 124.33 17.5927C124.635 17.7823 124.974 17.875 125.356 17.875C125.563 17.875 125.763 17.8455 125.953 17.7907C126.144 17.736 126.318 17.6475 126.471 17.5379C126.627 17.4241 126.755 17.2893 126.865 17.125C126.975 16.9648 127.047 16.7752 127.089 16.5645H128.107C128.052 16.8932 127.946 17.1924 127.789 17.4663C127.636 17.7402 127.437 17.9761 127.195 18.1742C126.954 18.3722 126.678 18.5239 126.365 18.6335C126.055 18.7431 125.716 18.7936 125.347 18.7936C124.767 18.7936 124.254 18.6588 123.8 18.3849C123.351 18.111 122.995 17.7191 122.732 17.2134C122.473 16.7036 122.342 16.0968 122.342 15.3889C122.342 14.681 122.473 14.0742 122.732 13.5643C122.99 13.0544 123.346 12.6668 123.8 12.3929C124.249 12.119 124.767 11.9841 125.339 11.9841C125.691 11.9841 126.021 12.0347 126.331 12.1358C126.636 12.237 126.916 12.3844 127.157 12.5783C127.403 12.7721 127.607 13.0039 127.768 13.282C127.929 13.5601 128.035 13.8761 128.094 14.2343L128.111 14.2174Z" fill="#104076"/>
        <path d="M135.449 12.0599V18.6924H134.445V12.9153H131.303V18.6924H130.299V12.0599H135.445H135.449Z" fill="#104076"/>
        <path d="M143.698 15.3762C143.698 16.0841 143.567 16.6909 143.308 17.2008C143.05 17.7106 142.69 18.0983 142.236 18.3722C141.787 18.6461 141.269 18.7809 140.697 18.7809C140.125 18.7809 139.604 18.6461 139.15 18.3722C138.696 18.0983 138.34 17.7064 138.077 17.2008C137.819 16.6909 137.688 16.0841 137.688 15.3762C137.688 14.6683 137.819 14.0615 138.077 13.5516C138.336 13.0417 138.696 12.6541 139.15 12.3802C139.599 12.1063 140.116 11.9714 140.697 11.9714C141.278 11.9714 141.787 12.1063 142.236 12.3802C142.69 12.6541 143.046 13.046 143.308 13.5516C143.571 14.0573 143.698 14.6683 143.698 15.3762ZM142.702 15.3762C142.702 14.8368 142.613 14.3817 142.439 14.0109C142.266 13.6401 142.024 13.3578 141.723 13.1682C141.422 12.9785 141.079 12.8816 140.697 12.8816C140.316 12.8816 139.968 12.9785 139.667 13.1682C139.366 13.362 139.125 13.6401 138.951 14.0109C138.777 14.3817 138.688 14.8368 138.688 15.3762C138.688 15.9155 138.777 16.3706 138.951 16.7372C139.125 17.1081 139.366 17.3904 139.667 17.58C139.968 17.7738 140.311 17.8665 140.697 17.8665C141.083 17.8665 141.422 17.7738 141.723 17.58C142.024 17.3862 142.266 17.1081 142.439 16.7372C142.613 16.3664 142.702 15.9113 142.702 15.3762Z" fill="#104076"/>
        <path d="M145.864 18.6923V12.0598H148.242C148.759 12.0598 149.192 12.1525 149.531 12.3421C149.87 12.5318 150.124 12.7888 150.294 13.1133C150.464 13.4377 150.548 13.8043 150.548 14.2088C150.548 14.6134 150.464 14.9842 150.294 15.3087C150.124 15.6331 149.87 15.8902 149.527 16.0798C149.183 16.2694 148.755 16.3621 148.238 16.3621H146.606V15.5151H148.149C148.475 15.5151 148.743 15.4561 148.946 15.3424C149.149 15.2286 149.302 15.0727 149.395 14.8788C149.489 14.685 149.539 14.4575 149.539 14.2088C149.539 13.9602 149.489 13.7369 149.395 13.5431C149.302 13.3492 149.149 13.1975 148.946 13.0838C148.738 12.9742 148.471 12.9194 148.136 12.9194H146.873V18.6923H145.864Z" fill="#104076"/>
        <path d="M152.316 12.9237V12.0641H157.48V12.9237H155.398V18.6924H154.394V12.9237H152.316Z" fill="#104076"/>
        <path d="M159.531 18.6924V12.0599H160.54V14.9422H163.864V12.0599H164.872V18.6924H163.864V15.8018H160.54V18.6924H159.531Z" fill="#104076"/>
        <path d="M173.054 15.3762C173.054 16.0841 172.922 16.6909 172.664 17.2008C172.405 17.7106 172.045 18.0983 171.591 18.3722C171.142 18.6461 170.625 18.7809 170.053 18.7809C169.48 18.7809 168.959 18.6461 168.505 18.3722C168.052 18.0983 167.696 17.7064 167.433 17.2008C167.174 16.6909 167.043 16.0841 167.043 15.3762C167.043 14.6683 167.174 14.0615 167.433 13.5516C167.692 13.0417 168.052 12.6541 168.505 12.3802C168.955 12.1063 169.472 11.9714 170.053 11.9714C170.633 11.9714 171.142 12.1063 171.591 12.3802C172.045 12.6541 172.401 13.046 172.664 13.5516C172.922 14.0615 173.054 14.6683 173.054 15.3762ZM172.058 15.3762C172.058 14.8368 171.969 14.3817 171.795 14.0109C171.621 13.6401 171.379 13.3578 171.078 13.1682C170.778 12.9785 170.434 12.8816 170.053 12.8816C169.671 12.8816 169.324 12.9785 169.023 13.1682C168.722 13.362 168.48 13.6401 168.306 14.0109C168.132 14.3817 168.043 14.8368 168.043 15.3762C168.043 15.9155 168.132 16.3706 168.306 16.7372C168.48 17.1081 168.722 17.3904 169.023 17.58C169.324 17.7738 169.667 17.8665 170.053 17.8665C170.438 17.8665 170.778 17.7738 171.078 17.58C171.379 17.3862 171.621 17.1081 171.795 16.7372C171.969 16.3664 172.058 15.9113 172.058 15.3762Z" fill="#104076"/>
        <path d="M181.438 15.469V16.3075H178.483V15.469H181.438Z" fill="#104076"/>
        <path d="M186.576 18.6924V17.8244H186.771C187.034 17.8118 187.246 17.7233 187.399 17.5505C187.551 17.3777 187.661 17.0996 187.733 16.7162C187.805 16.3285 187.852 15.8186 187.873 15.1781L187.988 12.0599H192.21V18.6924H191.214V12.9111H188.937L188.836 15.4436C188.806 16.1515 188.734 16.7499 188.619 17.2303C188.505 17.7106 188.31 18.0772 188.034 18.3216C187.759 18.5702 187.369 18.6924 186.864 18.6924H186.58H186.576Z" fill="#104076"/>
        <path d="M200.387 15.3762C200.387 16.0841 200.255 16.6909 199.997 17.2008C199.738 17.7106 199.378 18.0983 198.924 18.3722C198.475 18.6461 197.958 18.7809 197.386 18.7809C196.813 18.7809 196.292 18.6461 195.838 18.3722C195.385 18.0983 195.029 17.7064 194.766 17.2008C194.507 16.6909 194.376 16.0841 194.376 15.3762C194.376 14.6683 194.507 14.0615 194.766 13.5516C195.025 13.0417 195.385 12.6541 195.838 12.3802C196.288 12.1063 196.805 11.9714 197.386 11.9714C197.966 11.9714 198.475 12.1063 198.924 12.3802C199.378 12.6541 199.734 13.046 199.997 13.5516C200.255 14.0615 200.387 14.6683 200.387 15.3762ZM199.391 15.3762C199.391 14.8368 199.302 14.3817 199.128 14.0109C198.954 13.6401 198.712 13.3578 198.412 13.1682C198.111 12.9785 197.767 12.8816 197.386 12.8816C197.004 12.8816 196.657 12.9785 196.356 13.1682C196.055 13.362 195.813 13.6401 195.639 14.0109C195.465 14.3817 195.376 14.8368 195.376 15.3762C195.376 15.9155 195.465 16.3706 195.639 16.7372C195.813 17.1081 196.055 17.3904 196.356 17.58C196.657 17.7738 197 17.8665 197.386 17.8665C197.771 17.8665 198.111 17.7738 198.412 17.58C198.712 17.3862 198.954 17.1081 199.128 16.7372C199.302 16.3664 199.391 15.9113 199.391 15.3762Z" fill="#104076"/>
        <path d="M206.715 12.0599V12.9195H203.566V18.6882H202.557V12.0557H206.715V12.0599Z" fill="#104076"/>
        <path d="M208.768 12.0598H209.764V16.931H209.827L213.223 12.0598H214.151V18.6923H213.146V13.8296H213.087L209.7 18.6923H208.772V12.0598H208.768Z" fill="#104076"/>
        <path d="M222.078 14.2174H221.061C221.022 13.9983 220.95 13.8129 220.84 13.6486C220.734 13.4842 220.607 13.3452 220.45 13.2314C220.297 13.1176 220.124 13.0292 219.933 12.9744C219.742 12.9196 219.543 12.8859 219.327 12.8859C218.945 12.8859 218.598 12.9828 218.297 13.1766C217.996 13.3705 217.754 13.6486 217.58 14.0236C217.407 14.3986 217.317 14.8495 217.317 15.3847C217.317 15.9198 217.407 16.3791 217.58 16.7499C217.754 17.1207 217.996 17.4031 218.297 17.5927C218.602 17.7823 218.941 17.875 219.323 17.875C219.53 17.875 219.729 17.8455 219.92 17.7907C220.111 17.736 220.285 17.6475 220.437 17.5379C220.594 17.4241 220.721 17.2893 220.832 17.125C220.942 16.9648 221.014 16.7752 221.056 16.5645H222.074C222.019 16.8932 221.913 17.1924 221.756 17.4663C221.603 17.7402 221.404 17.9761 221.162 18.1742C220.921 18.3722 220.645 18.5239 220.331 18.6335C220.022 18.7431 219.683 18.7936 219.314 18.7936C218.733 18.7936 218.22 18.6588 217.767 18.3849C217.317 18.111 216.961 17.7191 216.699 17.2134C216.44 16.7036 216.309 16.0968 216.309 15.3889C216.309 14.681 216.44 14.0742 216.699 13.5643C216.957 13.0544 217.313 12.6668 217.767 12.3929C218.216 12.119 218.733 11.9841 219.306 11.9841C219.657 11.9841 219.988 12.0347 220.298 12.1358C220.603 12.237 220.882 12.3844 221.124 12.5783C221.37 12.7721 221.573 13.0039 221.735 13.282C221.896 13.5601 222.002 13.8761 222.061 14.2343L222.078 14.2174Z" fill="#104076"/>
        <path d="M223.871 12.9238V12.0642H229.034V12.9238H226.953V18.6925H225.948V12.9238H223.871Z" fill="#104076"/>
        <path d="M231.086 12.0598H232.082V16.931H232.146L235.541 12.0598H236.469V18.6923H235.465V13.8296H235.405L232.019 18.6923H231.09V12.0598H231.086Z" fill="#104076"/>
        <path d="M238.987 12.0598H239.979V14.251C239.979 14.5544 240.034 14.7946 240.14 14.9715C240.246 15.1485 240.399 15.2707 240.607 15.3466C240.81 15.4182 241.056 15.4561 241.348 15.4561C241.501 15.4561 241.658 15.4519 241.819 15.4393C241.98 15.4266 242.137 15.4098 242.298 15.3845C242.455 15.3634 242.607 15.3339 242.76 15.3044C242.908 15.2749 243.048 15.237 243.175 15.1991V16.0503C243.048 16.0924 242.917 16.1303 242.777 16.1598C242.637 16.1935 242.493 16.2188 242.336 16.2399C242.183 16.261 242.027 16.282 241.861 16.2947C241.696 16.3073 241.526 16.3157 241.348 16.3157C240.861 16.3157 240.441 16.2483 240.089 16.1051C239.738 15.966 239.466 15.7469 239.276 15.4435C239.085 15.1401 238.992 14.744 238.992 14.251V12.0598H238.987ZM243.023 12.0598H244.019V18.6923H243.023V12.0598Z" fill="#104076"/>
        <path d="M246.478 18.6924V12.0599H250.661V12.9196H247.486V14.9422H250.441V15.7976H247.486V17.8286H250.7V18.6882H246.478V18.6924Z" fill="#104076"/>
        <path d="M258.469 14.2174H257.452C257.414 13.9983 257.342 13.8129 257.232 13.6486C257.126 13.4842 256.999 13.3452 256.842 13.2314C256.689 13.1176 256.515 13.0292 256.325 12.9744C256.134 12.9196 255.935 12.8859 255.718 12.8859C255.337 12.8859 254.989 12.9828 254.688 13.1766C254.387 13.3705 254.146 13.6486 253.972 14.0236C253.798 14.3986 253.709 14.8495 253.709 15.3847C253.709 15.9198 253.798 16.3791 253.972 16.7499C254.146 17.1207 254.387 17.4031 254.688 17.5927C254.993 17.7823 255.333 17.875 255.714 17.875C255.922 17.875 256.121 17.8455 256.312 17.7907C256.503 17.736 256.676 17.6475 256.829 17.5379C256.986 17.4241 257.113 17.2893 257.223 17.125C257.333 16.9648 257.405 16.7752 257.448 16.5645H258.465C258.41 16.8932 258.304 17.1924 258.147 17.4663C257.995 17.7402 257.795 17.9761 257.554 18.1742C257.312 18.3722 257.037 18.5239 256.723 18.6335C256.414 18.7431 256.074 18.7936 255.706 18.7936C255.125 18.7936 254.612 18.6588 254.158 18.3849C253.709 18.111 253.353 17.7191 253.09 17.2134C252.832 16.7036 252.7 16.0968 252.7 15.3889C252.7 14.681 252.832 14.0742 253.09 13.5643C253.349 13.0544 253.705 12.6668 254.158 12.3929C254.608 12.119 255.125 11.9841 255.697 11.9841C256.049 11.9841 256.38 12.0347 256.689 12.1358C256.994 12.237 257.274 12.3844 257.516 12.5783C257.762 12.7721 257.965 13.0039 258.126 13.282C258.287 13.5601 258.393 13.8761 258.453 14.2343L258.469 14.2174Z" fill="#104076"/>
        <path d="M264.548 18.6923L262.31 15.7174H261.602V18.6923H260.593V12.0598H261.602V14.862H261.928L264.45 12.0598H265.675L263.009 15.0305L265.777 18.6923H264.548Z" fill="#104076"/>
        <path d="M268.189 18.6924H267.121L269.52 12.0599H270.686L273.085 18.6924H272.017L270.131 13.2651H270.08L268.189 18.6924ZM268.367 16.0968H271.831V16.9395H268.367V16.0968Z" fill="#104076"/>
        <path d="M276.401 15.7005H277.516L275.896 18.6923H274.752L276.401 15.7005ZM279.695 18.6923H278.686V12.9194H277.423C277.092 12.9194 276.825 12.97 276.617 13.0669C276.409 13.1638 276.261 13.3029 276.164 13.4883C276.07 13.6737 276.024 13.8886 276.024 14.1414C276.024 14.3943 276.07 14.6049 276.164 14.7777C276.257 14.9547 276.409 15.0895 276.613 15.1822C276.816 15.2749 277.083 15.3213 277.41 15.3213H279.118V16.1809H277.312C276.799 16.1809 276.371 16.0966 276.028 15.9239C275.685 15.7511 275.43 15.5151 275.261 15.2075C275.087 14.8999 275.006 14.546 275.006 14.1372C275.006 13.7285 275.091 13.3703 275.261 13.0585C275.43 12.7467 275.685 12.5023 276.028 12.3253C276.371 12.1483 276.799 12.0598 277.312 12.0598H279.695V18.6923Z" fill="#104076"/>
        <path d="M289.381 18.6923L287.143 15.7174H286.435V18.6923H285.426V12.0598H286.435V14.862H286.761L289.283 12.0598H290.508L287.842 15.0305L290.61 18.6923H289.381Z" fill="#104076"/>
        <path d="M297.922 15.3762C297.922 16.0841 297.791 16.6909 297.532 17.2008C297.273 17.7106 296.913 18.0983 296.46 18.3722C296.01 18.6461 295.493 18.7809 294.921 18.7809C294.349 18.7809 293.827 18.6461 293.374 18.3722C292.92 18.0983 292.564 17.7064 292.301 17.2008C292.043 16.6909 291.911 16.0841 291.911 15.3762C291.911 14.6683 292.043 14.0615 292.301 13.5516C292.56 13.0417 292.92 12.6541 293.374 12.3802C293.823 12.1063 294.34 11.9714 294.921 11.9714C295.502 11.9714 296.01 12.1063 296.46 12.3802C296.913 12.6541 297.269 13.046 297.532 13.5516C297.791 14.0615 297.922 14.6683 297.922 15.3762ZM296.922 15.3762C296.922 14.8368 296.833 14.3817 296.659 14.0109C296.485 13.6401 296.243 13.3578 295.942 13.1682C295.641 12.9785 295.298 12.8816 294.917 12.8816C294.535 12.8816 294.187 12.9785 293.886 13.1682C293.586 13.362 293.344 13.6401 293.17 14.0109C292.996 14.3817 292.907 14.8368 292.907 15.3762C292.907 15.9155 292.996 16.3706 293.17 16.7372C293.344 17.1081 293.586 17.3904 293.886 17.58C294.187 17.7738 294.531 17.8665 294.917 17.8665C295.302 17.8665 295.641 17.7738 295.942 17.58C296.243 17.3862 296.485 17.1081 296.659 16.7372C296.833 16.3664 296.922 15.9113 296.922 15.3762Z" fill="#104076"/>
        <path d="M300.088 12.0599H301.309L303.432 17.2176H303.513L305.637 12.0599H306.858V18.6924H305.9V13.8929H305.836L303.869 18.6797H303.076L301.11 13.8845H301.046V18.6882H300.088V12.0557V12.0599Z" fill="#104076"/>
        <path d="M314.458 12.0598V18.6923H313.453V12.9152H310.312V18.6923H309.308V12.0598H314.454H314.458Z" fill="#104076"/>
        <path d="M317.476 18.6924H316.408L318.807 12.0599H319.973L322.372 18.6924H321.304L319.418 13.2651H319.367L317.476 18.6924ZM317.654 16.0968H321.118V16.9395H317.654V16.0968Z" fill="#104076"/>
        <path d="M324.246 18.6924V12.0599H325.255V14.9422H328.578V12.0599H329.587V18.6924H328.578V15.8018H325.255V18.6924H324.246Z" fill="#104076"/>
        <path d="M331.974 12.0599H332.97V16.9311H333.033L336.429 12.0599H337.357V18.6924H336.353V13.8297H336.293L332.906 18.6924H331.978V12.0599H331.974Z" fill="#104076"/>
        <path d="M341.181 15.7005H342.296L340.677 18.6923H339.532L341.181 15.7005ZM344.475 18.6923H343.466V12.9194H342.203C341.872 12.9194 341.605 12.97 341.397 13.0669C341.19 13.1638 341.041 13.3029 340.944 13.4883C340.851 13.6737 340.804 13.8886 340.804 14.1414C340.804 14.3943 340.851 14.6049 340.944 14.7777C341.037 14.9547 341.19 15.0895 341.393 15.1822C341.597 15.2749 341.864 15.3213 342.19 15.3213H343.898V16.1809H342.093C341.58 16.1809 341.152 16.0966 340.808 15.9239C340.465 15.7511 340.21 15.5151 340.041 15.2075C339.867 14.8999 339.787 14.546 339.787 14.1372C339.787 13.7285 339.871 13.3703 340.041 13.0585C340.21 12.7467 340.465 12.5023 340.808 12.3253C341.152 12.1483 341.58 12.0598 342.093 12.0598H344.475V18.6923Z" fill="#104076"/>
        <path d="M94.2207 31.9658V27.3137H112.817V31.9658H106.382V48.585H100.656V31.9658H94.2207Z" fill="#104076"/>
        <path d="M114.987 48.5808V27.3096H124.224C125.814 27.3096 127.2 27.6214 128.395 28.245C129.586 28.8687 130.511 29.7451 131.176 30.8744C131.842 32.0037 132.168 33.3227 132.168 34.8312C132.168 36.3397 131.829 37.6713 131.151 38.7879C130.468 39.9046 129.519 40.76 128.298 41.3626C127.077 41.9651 125.653 42.2685 124.021 42.2685H118.501V37.7809H122.846C123.529 37.7809 124.114 37.6629 124.597 37.4227C125.08 37.1825 125.453 36.8412 125.716 36.3987C125.979 35.9563 126.106 35.4338 126.106 34.8312C126.106 34.2286 125.975 33.7019 125.716 33.2679C125.453 32.8381 125.08 32.501 124.597 32.2692C124.114 32.0374 123.533 31.9195 122.846 31.9195H120.799V48.5808H114.987Z" fill="#104076"/>
        <path d="M137.179 48.5808H130.909L137.971 27.3096H145.911L152.973 48.5808H146.704L142.024 33.1667H141.854L137.174 48.5808H137.179ZM136.009 40.1911H147.793V44.5103H136.009V40.1911Z" fill="#104076"/>
        <path d="M155.025 48.5808V27.3096H160.837V35.6192H168.527V27.3096H174.338V48.5808H168.527V40.2712H160.837V48.5808H155.025Z" fill="#104076"/>
        <path d="M185.495 48.8715C183.808 48.8715 182.311 48.585 181.006 48.0035C179.7 47.4262 178.674 46.6298 177.928 45.6101C177.182 44.5903 176.805 43.4231 176.801 42.1H182.651C182.659 42.5087 182.786 42.8753 183.032 43.1956C183.278 43.5158 183.617 43.7686 184.049 43.9498C184.482 44.1268 184.978 44.2195 185.533 44.2195C186.088 44.2195 186.542 44.1226 186.953 43.933C187.364 43.7433 187.687 43.4779 187.915 43.1366C188.144 42.7995 188.259 42.4118 188.25 41.9736C188.259 41.5437 188.127 41.1645 187.86 40.8316C187.593 40.4987 187.216 40.2375 186.737 40.0521C186.258 39.8667 185.703 39.7697 185.075 39.7697H182.901V35.7835H185.075C185.652 35.7835 186.161 35.6908 186.606 35.5012C187.051 35.3115 187.39 35.0545 187.64 34.7216C187.886 34.3887 188.004 34.0095 188 33.5797C188.009 33.1667 187.907 32.8001 187.695 32.4799C187.487 32.1638 187.195 31.911 186.822 31.734C186.449 31.5528 186.021 31.4644 185.533 31.4644C185.003 31.4644 184.528 31.5571 184.117 31.7467C183.702 31.9363 183.375 32.1933 183.142 32.5262C182.905 32.8591 182.782 33.2384 182.778 33.6682H177.22C177.229 32.3661 177.589 31.22 178.301 30.2171C179.014 29.2184 179.993 28.4388 181.243 27.87C182.49 27.3011 183.922 27.0188 185.537 27.0188C187.152 27.0188 188.513 27.2843 189.734 27.8194C190.951 28.3546 191.9 29.0836 192.587 30.019C193.274 30.9503 193.613 32.0164 193.604 33.2131C193.617 34.4056 193.206 35.379 192.375 36.1417C191.544 36.9044 190.493 37.3552 189.217 37.4943V37.6586C190.946 37.8483 192.243 38.3708 193.112 39.2346C193.981 40.0984 194.41 41.1814 194.397 42.4792C194.405 43.7265 194.032 44.8305 193.274 45.7955C192.515 46.7562 191.468 47.5147 190.128 48.0583C188.789 48.6061 187.246 48.88 185.495 48.88V48.8715Z" fill="#104076"/>
        <path d="M196.945 27.3137H202.756V38.4466H202.922L210.526 27.3137H215.456V48.585H209.649V37.41H209.522L201.79 48.585H196.94V27.3137H196.945Z" fill="#104076"/>
        <path d="M217.635 31.9658V27.3137H236.231V31.9658H229.796V48.585H224.07V31.9658H217.635Z" fill="#104076"/>
        <path d="M259.296 27.3137V31.9658H250.064V48.585H244.252V27.3137H259.296Z" fill="#104076"/>
        <path d="M261.471 48.5808V27.3096H270.707C272.297 27.3096 273.683 27.6214 274.879 28.245C276.074 28.8687 276.994 29.7451 277.659 30.8744C278.321 32.0037 278.651 33.3227 278.651 34.8312C278.651 36.3397 278.312 37.6713 277.634 38.7879C276.952 39.9046 276.002 40.76 274.781 41.3626C273.56 41.9651 272.136 42.2685 270.504 42.2685H264.985V37.7809H269.33C270.012 37.7809 270.597 37.6629 271.081 37.4227C271.564 37.1825 271.937 36.8412 272.2 36.3987C272.462 35.9563 272.59 35.4338 272.59 34.8312C272.59 34.2286 272.458 33.7019 272.2 33.2679C271.937 32.8381 271.564 32.501 271.081 32.2692C270.597 32.0374 270.017 31.9195 269.33 31.9195H267.282V48.5808H261.471Z" fill="#104076"/>
        <path d="M283.874 48.8715V44.388H284.917C285.532 44.388 286.015 44.3375 286.375 44.2363C286.736 44.1352 287.011 43.954 287.21 43.697C287.41 43.4399 287.579 43.0691 287.719 42.6014L287.927 41.9777L279.902 27.3137H285.837L290.309 35.9562L293.734 27.3137H299.584L292.229 43.9329C291.827 44.8052 291.348 45.6142 290.788 46.3685C290.233 47.1228 289.538 47.7253 288.707 48.1846C287.88 48.6439 286.85 48.8757 285.625 48.8757H283.87L283.874 48.8715Z" fill="#104076"/>
        <path d="M321.113 27.3137V48.585H315.386V31.8815H308.155V48.585H302.428V27.3137H321.109H321.113Z" fill="#104076"/>
        <path d="M344.475 27.3137V48.585H338.748V31.8815H331.516V48.585H325.789V27.3137H344.47H344.475Z" fill="#104076"/>
    </g>
    <defs>
        <clipPath id="clip0_1_9627">
            <rect width="345" height="57" fill="white"/>
        </clipPath>
    </defs>
</svg>
