<svg width="130" height="94" viewBox="0 0 130 94" fill="none" xmlns="http://www.w3.org/2000/svg">
    <path d="M167.801 -15H81.7728L81.4184 -13.8692L48.6905 91.1537L48.0381 93.2538H84.141L84.4955 92.123L106.8 20.5569H158.917L159.271 19.426L169.348 -12.8999L170 -15H167.809H167.801Z" fill="#104076" fill-opacity="0.1"/>
    <path d="M151.595 37.0188H117.683L117.329 38.1497L100.808 91.1538L100.155 93.2539H127.857C132.883 93.2539 137.265 90.023 138.763 85.2088L153.126 39.1109L153.778 37.0107H151.587L151.595 37.0188ZM134.832 88.7225C134.832 88.7225 134.865 88.6902 134.873 88.674C134.857 88.6902 134.841 88.7063 134.832 88.7225Z" fill="#104076" fill-opacity="0.1"/>
    <path d="M47.3301 37.0186H13.4181L13.0637 38.1494L0.529966 78.375C-0.565527 81.8887 0.0547152 85.6124 2.22959 88.5849C4.40447 91.5574 7.76344 93.2537 11.4366 93.2537H31.9932L32.3476 92.1228L48.8686 39.1187L49.5211 37.0186H47.3301Z" fill="#104076" fill-opacity="0.1"/>
    <path d="M63.5366 -15H38.0261C32.9997 -15 28.6177 -11.769 27.1195 -6.95487L19.2013 18.4567L18.5488 20.5569H54.6518L55.0062 19.426L65.0751 -12.8999L65.7275 -15H63.5366Z" fill="#104076" fill-opacity="0.1"/>
</svg>
