<svg width="170" height="108" viewBox="0 0 170 108" fill="none" xmlns="http://www.w3.org/2000/svg">
    <path d="M167.407 0H81.5805L81.2269 1.12819L48.5757 105.905L47.9248 108H83.9431L84.2967 106.872L106.549 35.4735H158.543L158.897 34.3453L168.95 2.09521L169.601 0H167.415H167.407Z" fill="#CDDDE6" fill-opacity="0.05"/>
    <path d="M151.239 51.8967H117.407L117.053 53.0249L100.571 105.905L99.9199 108H127.556C132.571 108 136.943 104.777 138.437 99.9737L152.766 53.9839L153.417 51.8887H151.231L151.239 51.8967ZM134.516 103.479C134.516 103.479 134.548 103.447 134.556 103.431C134.54 103.447 134.524 103.463 134.516 103.479Z" fill="#CDDDE6" fill-opacity="0.05"/>
    <path d="M47.2191 51.8965H13.3867L13.0331 53.0247L0.528723 93.156C-0.564202 96.6615 0.0545869 100.376 2.22436 103.342C4.39414 106.307 7.74524 108 11.4098 108H31.9182L32.2718 106.872L48.754 53.9917L49.405 51.8965H47.2191Z" fill="#CDDDE6" fill-opacity="0.05"/>
    <path d="M63.3881 0H37.9374C32.9228 0 28.5511 3.2234 27.0564 8.02627L19.1568 33.3783L18.5059 35.4735H54.5242L54.8778 34.3453L64.923 2.09521L65.574 0H63.3881Z" fill="#CDDDE6" fill-opacity="0.05"/>
</svg>
