<svg width="16" height="16" viewBox="0 0 16 16" fill="none" xmlns="http://www.w3.org/2000/svg">
    <path d="M15.9997 7.46255V8.52485L15.8961 9.31197C15.3444 12.6519 12.6602 15.3431 9.31548 15.8899L8.52835 15.9935C8.1769 15.9785 7.81574 16.0138 7.46561 15.9935C0.669848 15.5958 -2.51836 7.16975 2.342 2.32527C7.19486 -2.51172 15.6028 0.679572 15.9997 7.46255ZM7.52162 1.25327C2.38433 1.58091 -0.51283 7.48107 2.39448 11.766C5.08306 15.729 10.8844 15.7382 13.5871 11.7845C16.7745 7.12212 13.1166 0.89653 7.52162 1.25327Z" fill="#9CA9B0"/>
    <path d="M7.8322 3.71893C8.19908 3.64397 8.52761 3.84064 8.61492 4.20355L8.62726 7.72204L10.9353 9.4771C11.401 10.0005 10.8167 10.8304 10.0873 10.3873C9.21375 9.85589 8.33887 9.01144 7.49662 8.41436C7.42122 8.31162 7.38153 8.19961 7.37006 8.07217C7.26158 6.85995 7.45385 5.48766 7.37139 4.25868C7.38858 4.02717 7.60686 3.76479 7.83176 3.71893H7.8322Z" fill="#9CA9B0"/>
</svg>
