<svg width="24" height="24" viewBox="0 0 24 24" fill="none" xmlns="http://www.w3.org/2000/svg">
    <path d="M24 11.1941V12.7875L23.8446 13.9683C23.0171 18.9782 18.9907 23.0151 13.9735 23.8354L12.7928 23.9908C12.2656 23.9683 11.7239 24.0212 11.1987 23.9908C1.00479 23.3942 -3.77761 10.7548 3.51307 3.48798C10.7925 -3.76765 23.4047 1.01938 24 11.1941ZM11.2827 1.87995C3.57658 2.37142 -0.769262 11.2218 3.59179 17.6493C7.62475 23.5939 16.327 23.6078 20.3811 17.6771C25.1622 10.6834 19.6754 1.34482 11.2827 1.87995Z" fill="white"/>
    <path d="M11.7483 5.57937C12.2987 5.46692 12.7914 5.76194 12.9224 6.30632L12.9409 11.5842L16.4031 14.2168C17.1016 15.002 16.2251 16.2468 15.1311 15.5821C13.8207 14.785 12.5083 13.5183 11.2449 12.6227C11.1318 12.4685 11.0723 12.3005 11.0551 12.1094C10.8924 10.291 11.1808 8.23252 11.0571 6.38901C11.0829 6.04174 11.4103 5.64816 11.7477 5.57937H11.7483Z" fill="white"/>
</svg>
