<svg width="47" height="48" viewBox="0 0 47 48" fill="none" xmlns="http://www.w3.org/2000/svg">
    <path d="M46.5018 24.7491C46.5018 18.8891 44.315 13.2916 40.3442 8.98736C36.5128 4.83429 31.3541 2.23569 25.7706 1.63358C25.6578 1.38163 25.5076 1.14512 25.3212 0.93401C24.7972 0.340403 24.0427 0 23.2509 0C22.4592 0 21.7046 0.340403 21.1807 0.933906C20.6568 1.52751 20.4126 2.31843 20.5108 3.10407L21.6376 12.1183C21.7389 12.9294 22.4317 13.5411 23.2529 13.5411C24.0704 13.5411 24.7632 12.9294 24.8645 12.1183L25.9762 3.22424C31.0418 3.85922 35.7113 6.25905 39.2011 10.042C42.7301 13.8672 44.7475 18.7876 44.9314 23.9714H41.9787C41.5492 23.9714 41.2011 24.3196 41.2011 24.7491C41.2011 25.1786 41.5492 25.5267 41.9787 25.5267H44.9312C44.5293 36.8725 35.3745 46.0274 24.0287 46.4292V43.4769C24.0287 43.0474 23.6805 42.6992 23.251 42.6992C22.8216 42.6992 22.4734 43.0474 22.4734 43.4769V46.4292C11.1273 46.0274 1.97264 36.8727 1.57075 25.5267H4.52323C4.9527 25.5267 5.30088 25.1786 5.30088 24.7491C5.30088 24.3196 4.9527 23.9714 4.52323 23.9714H1.57044C1.66604 21.2284 2.26649 18.5725 3.36235 16.066C4.52084 13.4163 6.17392 11.0559 8.27565 9.0505C8.5864 8.75396 8.59791 8.26176 8.30147 7.95101C8.00493 7.64036 7.51283 7.62875 7.20198 7.92519C4.95021 10.0739 3.17893 12.6032 1.93739 15.443C0.651878 18.3832 0 21.5143 0 24.749C0 30.9595 2.41849 36.7983 6.81004 41.1899C11.2013 45.5811 17.0396 47.9995 23.2496 47.9999C23.25 47.9999 23.2504 48 23.2509 48C23.2514 48 23.2519 47.9999 23.2523 47.9999C29.4624 47.9996 35.3007 45.5811 39.6919 41.1899C44.0833 36.7984 46.5018 30.9596 46.5018 24.7491ZM24.4478 2.91121L23.321 11.9255C23.3168 11.96 23.2874 11.9858 23.2491 11.9858C23.2144 11.9858 23.1851 11.9598 23.1807 11.9254L22.054 2.91111C22.0104 2.56293 22.1144 2.22626 22.3466 1.9632C22.5787 1.70015 22.8999 1.5553 23.2509 1.5553C23.6018 1.5553 23.9229 1.70015 24.1552 1.96331C24.3874 2.22646 24.4913 2.56293 24.4478 2.91121Z" fill="#104076"/>
    <path d="M19.4901 24.4429C19.4819 24.544 19.4766 24.646 19.4766 24.7491C19.4766 26.8301 21.1696 28.5232 23.2506 28.5232C25.3316 28.5232 27.0247 26.8301 27.0247 24.7491C27.0247 22.6681 25.3316 20.975 23.2506 20.975C23.2369 20.975 23.2235 20.976 23.2098 20.9761L12.5083 12.1631C12.2065 11.9147 11.767 11.9288 11.4818 12.1964C11.1967 12.464 11.1546 12.9018 11.3835 13.2188L19.4901 24.4429ZM25.4694 24.749C25.4694 25.9724 24.474 26.9678 23.2506 26.9678C22.0272 26.9678 21.0319 25.9724 21.0319 24.749C21.0319 24.6474 21.0411 24.5482 21.0544 24.4502C21.0692 24.3964 21.0784 24.3411 21.0814 24.2853C21.2729 23.3888 22.0077 22.6933 22.9233 22.5571C23.0002 22.5611 23.0772 22.5538 23.1521 22.5352C23.185 22.5338 23.2173 22.5302 23.2505 22.5302C24.4741 22.5302 25.4694 23.5256 25.4694 24.749ZM21.3725 21.4776C20.8689 21.7679 20.4379 22.1703 20.1149 22.6516L16.1768 17.1988L21.3725 21.4776Z" fill="#104076"/>
</svg>
