<svg width="23" height="16" viewBox="0 0 23 16" fill="none" xmlns="http://www.w3.org/2000/svg">
    <path d="M8.02794 16C5.16508 16 2.59264 14.5551 1.14511 12.1352C-0.332675 9.66387 -0.382901 6.67804 1.01053 4.14874C2.40204 1.62267 4.94615 0.0721184 7.81416 0.00193167C7.87211 0.000643836 7.93006 0 7.98866 0C10.6744 0 13.4362 1.48873 14.7041 3.62073C14.8702 3.90084 14.8927 4.20283 14.7639 4.43013C14.6622 4.60914 14.4819 4.70766 14.2572 4.70766C14.1741 4.70766 14.0859 4.69414 13.9945 4.66774C13.8135 4.61558 13.5849 4.27624 13.4182 4.02833C13.3261 3.89118 13.2392 3.76239 13.1542 3.66323C11.8425 2.13651 10.0254 1.29556 8.03695 1.29556C6.45678 1.29556 4.91782 1.83451 3.70468 2.81326C2.39753 3.868 1.57911 5.32518 1.33958 7.02704C1.05883 9.01738 1.59907 10.9131 2.86051 12.3651C4.14705 13.8455 6.08782 14.7289 8.05241 14.7289C10.017 14.7289 11.7375 13.9131 13.0775 12.4321C13.1645 12.3355 13.2482 12.2254 13.3364 12.1088C13.5753 11.7927 13.8219 11.4655 14.111 11.4655C14.2218 11.4655 14.3441 11.5138 14.4748 11.6091C14.6377 11.7283 14.7247 11.8616 14.7408 12.0174C14.7852 12.4578 14.2656 13.0296 13.9545 13.3709L13.9249 13.4037C12.4033 15.0779 10.3093 16 8.02794 16Z" fill="#4C5764"/>
    <path d="M19.1999 11.8504C18.9585 11.8504 18.7247 11.7068 18.6191 11.4924C18.5142 11.2793 18.5502 11.0378 18.7209 10.8105L20.8348 8.67013H12.1999C12.1355 8.64437 11.9649 8.56324 11.9295 8.54199C11.7749 8.44089 11.6758 8.28442 11.6519 8.10155C11.6275 7.9161 11.6861 7.72808 11.8129 7.58578C11.8516 7.54263 12.0248 7.42158 12.0898 7.39518H20.822L20.5921 7.10026C20.3236 6.75577 19.9778 6.43961 19.6429 6.13439C19.3197 5.83883 19.0138 5.56002 18.7756 5.25995C18.576 5.00883 18.4105 4.63986 18.7569 4.31018C18.8844 4.18912 19.0171 4.12988 19.1632 4.12988C19.3326 4.12988 19.5225 4.21295 19.7112 4.36942C20.2489 4.81436 20.7698 5.37843 21.2746 5.92383C21.7415 6.42866 22.2238 6.95023 22.726 7.38745C22.9443 7.67528 23.1394 8.08803 22.8651 8.44476C22.424 9.01849 21.793 9.58899 21.1825 10.1408C20.6153 10.6534 20.0286 11.1833 19.5786 11.7281C19.4614 11.8099 19.3345 11.8517 19.2006 11.8517L19.1999 11.8504Z" fill="#4C5764"/>
    <path d="M7.89943 12.8611C7.83633 12.8611 7.76743 12.8533 7.69531 12.8385C7.58971 12.8147 7.29351 12.5488 7.25809 12.447V11.4206L7.04496 11.4567C6.96382 11.4702 6.88011 11.4773 6.79641 11.4773C6.46028 11.4773 6.17116 11.3685 6.02242 11.1856C5.91295 11.051 5.88011 10.8765 5.92325 10.6653C5.99666 10.3105 6.28835 10.1656 6.9297 10.1656C7.08424 10.1656 7.24586 10.1734 7.40169 10.1811C7.55687 10.1888 7.70368 10.1959 7.8447 10.1959C8.04303 10.1959 8.19242 10.1811 8.31476 10.1495C8.55494 10.0871 8.74168 9.90357 8.81315 9.65824C8.88591 9.40711 8.8241 9.13666 8.65088 8.95122C8.45449 8.7413 8.17632 8.71426 7.95545 8.71426C7.88784 8.71426 7.81894 8.71683 7.75133 8.71941C7.6908 8.72198 7.63092 8.72456 7.57361 8.72456C7.53176 8.72456 7.4957 8.72327 7.46479 8.7207C6.32119 8.61896 5.73845 7.72585 5.66762 6.88489C5.59743 6.05424 6.01791 5.08708 7.11579 4.79861L7.23684 4.76706L7.25037 4.64214C7.26904 4.47279 7.26131 4.30666 7.25423 4.14632C7.2362 3.7413 7.23813 3.48309 7.50729 3.28283C7.61418 3.20299 7.74232 3.16113 7.8769 3.16113C8.05591 3.16113 8.22976 3.23583 8.35468 3.36654C8.40233 3.41677 8.51953 3.646 8.5324 3.71426V4.73808L8.74039 4.7091C8.82474 4.69751 8.90781 4.69107 8.98894 4.69107C9.31025 4.69107 9.5646 4.78187 9.70562 4.94671C9.82217 5.08322 9.86209 5.27511 9.8241 5.51529C9.77001 5.85849 9.48411 5.99822 8.83826 5.99822C8.67535 5.99822 8.506 5.98985 8.34245 5.98148C8.18211 5.97375 8.03079 5.96603 7.88849 5.96603C7.68759 5.96603 7.5382 5.98213 7.41972 6.01561C7.12158 6.10125 6.9239 6.38843 6.92776 6.73035C6.93163 7.06841 7.12673 7.33692 7.42422 7.41484C7.51888 7.43995 7.62577 7.45154 7.76035 7.45154C7.83053 7.45154 7.90008 7.44832 7.96833 7.44574C8.03208 7.44317 8.09518 7.43995 8.157 7.43995C8.20143 7.43995 8.24007 7.44124 8.27484 7.44446C8.65604 7.47858 9.06557 7.64793 9.37014 7.89842C9.95675 8.382 10.222 9.10125 10.0804 9.82308C9.93485 10.5629 9.40684 11.1405 8.66763 11.3698L8.52339 11.4142L8.54077 11.5642C8.58327 11.9377 8.54721 12.4284 8.31798 12.6853C8.21238 12.8031 8.07587 12.8611 7.89943 12.8611Z" fill="#4C5764"/>
</svg>
