<svg width="55" height="55" viewBox="0 0 55 55" fill="none" xmlns="http://www.w3.org/2000/svg">
    <path d="M40.8564 15.6485C42.1812 16.9732 42.8435 17.6356 43.1925 18.4778C43.5413 19.3201 43.5413 20.2568 43.5413 22.1303V38.9583C43.5413 43.2795 43.5413 45.4401 42.1989 46.7825C40.8564 48.125 38.6958 48.125 34.3747 48.125H20.6247C16.3035 48.125 14.1429 48.125 12.8004 46.7825C11.458 45.4401 11.458 43.2795 11.458 38.9583V16.0417C11.458 11.7205 11.458 9.55985 12.8004 8.21744C14.1429 6.875 16.3035 6.875 20.6247 6.875H28.2859C30.1594 6.875 31.0962 6.875 31.9384 7.22388C32.7808 7.57277 33.4431 8.23513 34.7679 9.55985L40.8564 15.6485Z" stroke="white" stroke-linejoin="round"/>
    <path d="M20.625 27.5H34.375" stroke="white" stroke-linecap="round" stroke-linejoin="round"/>
    <path d="M20.625 34.375H34.375" stroke="white" stroke-linecap="round" stroke-linejoin="round"/>
</svg>
