<svg width="19" height="24" viewBox="0 0 19 24" fill="none" xmlns="http://www.w3.org/2000/svg">
    <path d="M15.1273 0C15.3082 0.0434158 15.4909 0.0814047 15.67 0.130247C17.2143 0.549934 18.3226 1.95251 18.3274 3.54864C18.3383 7.34813 18.3322 11.1476 18.3304 14.9471C18.3304 15.4934 17.9342 15.8944 17.4187 15.8896C16.9031 15.8848 16.5269 15.4838 16.5262 14.929C16.525 11.182 16.5262 7.43556 16.525 3.68854C16.525 2.80575 16.0119 2.09783 15.2093 1.87954C15.0302 1.8307 14.8391 1.80839 14.6533 1.80839C10.9962 1.80417 7.33898 1.80417 3.6818 1.80598C2.58495 1.80658 1.8101 2.58626 1.80949 3.68733C1.80769 8.9316 1.80769 14.1753 1.80949 19.4195C1.80949 20.5321 2.58555 21.3063 3.69929 21.3069C7.34923 21.3087 10.9986 21.3087 14.6485 21.3069C15.72 21.3069 16.4792 20.5701 16.5262 19.4967C16.5492 18.9769 16.9363 18.5952 17.4368 18.5995C17.9445 18.6037 18.3292 19.0071 18.3316 19.5371C18.3401 21.4263 16.7457 23.0948 14.8523 23.1051C11.0601 23.1262 7.26722 23.1274 3.47437 23.1051C1.60689 23.0936 0.036682 21.4745 0.00653214 19.5968C-0.0061308 18.822 0.00351697 18.0471 0.00351697 17.2723C0.00351697 12.7353 0.00170811 8.19835 0.0041201 3.6614C0.00532609 1.87834 1.1878 0.429334 2.92745 0.0657267C3.02092 0.0464308 3.11378 0.0223109 3.20724 0C7.18039 0 11.1541 0 15.1273 0Z" fill="#D82D32"/>
    <path d="M10.1114 14.8549C10.6342 14.314 11.1468 13.7635 11.6822 13.2359C12.2075 12.7185 13.0396 12.9555 13.2084 13.658C13.2844 13.9745 13.2024 14.261 12.9745 14.4889C12.3033 15.1582 11.6406 15.8378 10.9442 16.48C9.95466 17.3923 8.36576 17.3881 7.38469 16.4673C6.68822 15.8137 6.02613 15.1232 5.36163 14.437C5.00586 14.0698 5.02335 13.5265 5.37188 13.1774C5.72644 12.8222 6.27336 12.8186 6.64963 13.1792C7.17122 13.6785 7.68679 14.1844 8.22165 14.7036V14.4913C8.22165 12.016 8.22165 9.5407 8.22165 7.06539C8.22165 6.96047 8.21803 6.85314 8.23732 6.75063C8.32355 6.28632 8.73359 5.97155 9.19669 6.00713C9.67487 6.04391 10.0258 6.42983 10.0264 6.93756C10.0288 9.4804 10.0276 12.0232 10.0276 14.5667C10.0276 14.6469 10.0276 14.7265 10.0276 14.8067C10.056 14.823 10.0837 14.8392 10.112 14.8555L10.1114 14.8549Z" fill="#D82D32"/>
</svg>
