<svg width="64" height="64" viewBox="0 0 64 64" fill="none" xmlns="http://www.w3.org/2000/svg">
    <path d="M41.8244 0H14.9552C10.2064 0 6.34277 3.86363 6.34277 8.61242V55.3876C6.34277 60.1364 10.2064 64 14.9552 64H49.0463C53.7943 64 57.6579 60.1371 57.6579 55.3876V17.6969L41.8244 0ZM43.0787 8.2107L50.3119 16.295H43.0787V8.2107ZM49.0448 59.4608H14.9552C12.709 59.4608 10.882 57.6337 10.882 55.3876V8.61242C10.882 6.36626 12.709 4.53922 14.9552 4.53922H38.5402V20.8335H53.1187V55.3876C53.1179 57.6337 51.2909 59.4608 49.0448 59.4608Z" fill="#104076"/>
    <path d="M48.2449 45.8833H15.7539V50.4225H48.2449V45.8833Z" fill="#104076"/>
    <path d="M48.2449 36.0195H15.7539V40.5588H48.2449V36.0195Z" fill="#104076"/>
    <path d="M48.2449 26.1572H15.7539V30.6964H48.2449V26.1572Z" fill="#104076"/>
</svg>
