<svg width="24" height="24" viewBox="0 0 24 24" fill="none" xmlns="http://www.w3.org/2000/svg">
    <g clip-path="url(#clip0_123_324)">
        <path d="M14.9989 0C15.1266 0.0754072 15.235 0.135601 15.3515 0.233498C17.275 1.85343 18.9928 4.10837 20.9038 5.78585L21.1168 6.1351L21.1386 22.0467C21.0586 23.0594 20.243 23.8796 19.2389 23.9888C14.2991 23.9444 9.33873 24.0814 4.41014 23.9193C3.55949 23.6825 2.90398 22.896 2.8623 22.0004L2.86495 1.89907C2.94168 1.1741 3.37891 0.576799 4.00333 0.226222L4.6443 0H14.9989ZM14.1086 1.40562H4.8553C4.68266 1.40562 4.32481 1.73701 4.30166 1.9295L4.26792 21.8588C4.28049 22.2557 4.59865 22.5726 4.99421 22.5851L19.2071 22.5514C19.3996 22.5282 19.731 22.1704 19.731 21.9977V7.02808H15.9124C15.1788 7.02808 14.1086 5.95717 14.1086 5.22427V1.40562ZM18.7005 5.62247L15.5142 2.43618V5.03641C15.5142 5.22228 15.9117 5.62181 16.0996 5.62181H18.6998L18.7005 5.62247Z" fill="white"/>
        <path d="M7.63073 9.94386L16.2873 9.93262C17.0308 10.0179 17.1565 11.0082 16.4772 11.2939C13.5072 11.368 10.4936 11.368 7.52357 11.2939C6.88525 11.032 6.94346 10.0874 7.63073 9.94386Z" fill="white"/>
        <path d="M7.63073 12.7549L16.2873 12.7437C17.0308 12.829 17.1565 13.8192 16.4772 14.105C13.5072 14.179 10.4936 14.179 7.52357 14.105C6.88525 13.843 6.94346 12.8984 7.63073 12.7549Z" fill="white"/>
        <path d="M7.63073 15.5664L16.2873 15.5552C17.0308 15.6405 17.1565 16.6307 16.4772 16.9165C13.5072 16.9906 10.4936 16.9906 7.52357 16.9165C6.88525 16.6545 6.94346 15.71 7.63073 15.5664Z" fill="white"/>
        <path d="M7.63047 18.3774L13.5188 18.3701C14.2293 18.509 14.3291 19.441 13.6657 19.7268L7.67016 19.7671C6.90815 19.6216 6.86515 18.552 7.63047 18.3767V18.3774Z" fill="white"/>
    </g>
    <defs>
        <clipPath id="clip0_123_324">
            <rect width="24" height="24" fill="white"/>
        </clipPath>
    </defs>
</svg>
