<svg width="48" height="48" viewBox="0 0 48 48" fill="none" xmlns="http://www.w3.org/2000/svg">
    <path d="M44.8247 19.1221H43.3147V18.8165C43.3147 17.3403 42.1136 16.1392 40.6373 16.1392C39.1611 16.1392 37.96 17.3403 37.96 18.8165V19.1221H10.0399V18.8165C10.0399 18.5048 9.98578 18.2057 9.88744 17.9272L21.5023 13.6254C22.194 14.237 23.102 14.6094 24.0957 14.6094C25.3022 14.6094 26.3827 14.0613 27.1025 13.2012L32.7982 15.6776C32.9224 15.7315 33.0517 15.7572 33.1789 15.7572C33.548 15.7572 33.8996 15.5421 34.0563 15.182C34.2668 14.6977 34.0449 14.1345 33.5606 13.9239L27.9362 11.4785C27.9885 11.2235 28.0161 10.9595 28.0161 10.6894C28.0161 8.85739 26.753 7.31482 25.052 6.88695V3.13536C25.052 2.60726 24.6238 2.1792 24.0958 2.1792C23.5677 2.1792 23.1397 2.60726 23.1397 3.13536V7.72498C23.1397 8.25307 23.5677 8.68114 24.0958 8.68114C25.2004 8.68114 26.0992 9.57776 26.1034 10.6815L24.7639 10.0991C24.2797 9.88864 23.7163 10.1105 23.5057 10.5948C23.2952 11.0791 23.5171 11.6423 24.0014 11.8529L25.1909 12.3701C24.8756 12.5763 24.4999 12.6972 24.0959 12.6972C22.9886 12.6972 22.088 11.7964 22.088 10.6893C22.088 10.1612 21.6599 9.7331 21.1318 9.7331C20.6037 9.7331 20.1757 10.1612 20.1757 10.6893C20.1757 11.1469 20.2553 11.5861 20.4 11.9946L8.50988 16.3982C8.16197 16.2324 7.77291 16.1393 7.36256 16.1393C5.88628 16.1393 4.68525 17.3404 4.68525 18.8166V19.1222H3.17531C1.42444 19.1221 0 20.5632 0 22.3345V42.6453C0 44.3961 1.42444 45.8206 3.17531 45.8206H44.8247C46.5756 45.8206 48 44.3961 48 42.6453V22.3345C48 20.5632 46.5756 19.1221 44.8247 19.1221ZM39.8725 18.8166C39.8725 18.3949 40.2158 18.0517 40.6374 18.0517C41.0592 18.0517 41.4023 18.3948 41.4023 18.8166V19.1222H39.8724V18.8166H39.8725ZM6.59766 18.8166C6.59766 18.3949 6.94078 18.0517 7.36256 18.0517C7.78434 18.0517 8.12747 18.3948 8.12747 18.8166V19.1222H6.59766V18.8166ZM46.0877 42.6453C46.0877 43.3416 45.5212 43.9082 44.8248 43.9082H3.17531C2.47894 43.9082 1.91241 43.3416 1.91241 42.6453V22.3345C1.91241 21.6297 2.49066 21.0344 3.17531 21.0344H44.8247C45.5093 21.0344 46.0876 21.6298 46.0876 22.3345L46.0877 42.6453Z" fill="#49AAD1"/>
    <path d="M8.74912 23.7412C8.22103 23.7412 7.79297 24.1693 7.79297 24.6974V40.283C7.79297 40.8111 8.22103 41.2392 8.74912 41.2392C9.27722 41.2392 9.70528 40.8111 9.70528 40.283V24.6974C9.70528 24.1693 9.27722 23.7412 8.74912 23.7412Z" fill="#49AAD1"/>
    <path d="M16.3028 23.7412C15.7747 23.7412 15.3467 24.1693 15.3467 24.6974V40.283C15.3467 40.8111 15.7747 41.2392 16.3028 41.2392C16.8309 41.2392 17.259 40.8111 17.259 40.283V24.6974C17.2591 24.1693 16.8309 23.7412 16.3028 23.7412Z" fill="#49AAD1"/>
    <path d="M23.9523 23.7412C23.4242 23.7412 22.9961 24.1693 22.9961 24.6974V40.283C22.9961 40.8111 23.4242 41.2392 23.9523 41.2392C24.4803 41.2392 24.9084 40.8111 24.9084 40.283V24.6974C24.9084 24.1693 24.4803 23.7412 23.9523 23.7412Z" fill="#49AAD1"/>
    <path d="M31.6017 23.7412C31.0737 23.7412 30.6455 24.1693 30.6455 24.6974V40.283C30.6455 40.8111 31.0737 41.2392 31.6017 41.2392C32.1297 41.2392 32.5578 40.8111 32.5578 40.283V24.6974C32.5578 24.1693 32.1297 23.7412 31.6017 23.7412Z" fill="#49AAD1"/>
    <path d="M39.2511 23.7412C38.7231 23.7412 38.2949 24.1693 38.2949 24.6974V40.283C38.2949 40.8111 38.7231 41.2392 39.2511 41.2392C39.7791 41.2392 40.2072 40.8111 40.2072 40.283V24.6974C40.2073 24.1693 39.7791 23.7412 39.2511 23.7412Z" fill="#49AAD1"/>
    <path d="M36.9951 15.3577L36.3325 15.0708C35.8481 14.8608 35.2851 15.0835 35.0751 15.5682C34.8652 16.0528 35.0879 16.6158 35.5725 16.8256L36.2352 17.1125C36.359 17.1662 36.4878 17.1915 36.6147 17.1915C36.9842 17.1915 37.3363 16.9759 37.4926 16.6151C37.7024 16.1305 37.4797 15.5675 36.9951 15.3577Z" fill="#49AAD1"/>
</svg>
