<svg width="45" height="48" viewBox="0 0 45 48" fill="none" xmlns="http://www.w3.org/2000/svg">
    <path d="M16.9512 15.5737C16.4335 15.5737 16.0137 15.9935 16.0137 16.5112V40.7813C16.0137 41.299 16.4335 41.7188 16.9512 41.7188C17.4689 41.7188 17.8887 41.299 17.8887 40.7813V16.5112C17.8887 15.9935 17.469 15.5737 16.9512 15.5737Z" fill="#104076"/>
    <path d="M43.2773 46.125H42.3016V15.32C42.3016 14.8023 41.8818 14.3825 41.3641 14.3825H40.1715V11.2946C40.1715 10.7769 39.7517 10.3571 39.234 10.3571H36.964V9.46753C36.964 8.94984 36.5442 8.53003 36.0265 8.53003C35.5088 8.53003 35.089 8.94984 35.089 9.46753V10.3571H32.8191C32.3014 10.3571 31.8816 10.7769 31.8816 11.2946V14.3825H30.545C30.0273 14.3825 29.6075 14.8023 29.6075 15.32V21.8219H27.4262V9.49116C27.4262 8.97347 27.0064 8.55366 26.4887 8.55366H25.5086V4.68338C25.5086 4.16569 25.0888 3.74588 24.5711 3.74588H20.457V0.9375C20.457 0.419813 20.0372 0 19.5195 0C19.0018 0 18.582 0.419813 18.582 0.9375V3.74588H14.4678C13.9501 3.74588 13.5303 4.16569 13.5303 4.68338V8.55366H12.5503C12.0326 8.55366 11.6128 8.97347 11.6128 9.49116V17.8756L1.80178 23.3467C1.50487 23.5122 1.32084 23.8254 1.32084 24.1654V46.125H0.9375C0.419813 46.125 0 46.5448 0 47.0625C0 47.5802 0.419813 48 0.9375 48H43.2773C43.795 48 44.2148 47.5802 44.2148 47.0625C44.2148 46.5448 43.7951 46.125 43.2773 46.125ZM33.7567 12.2322H38.2966V14.3826H33.7567V12.2322ZM15.4054 5.62088H23.6337V8.55366H15.4054V5.62088ZM3.19584 24.7161L11.6128 20.0225V46.125H3.19584V24.7161ZM13.4879 10.4287H25.5513V21.8219H22.0883C21.5707 21.8219 21.1508 22.2417 21.1508 22.7594V46.125H13.488V10.4287H13.4879ZM23.0258 46.125V23.697H35.0891V46.125H23.0258ZM36.9641 46.125V22.7595C36.9641 22.2418 36.5443 21.822 36.0266 21.822H31.4825V16.2576H40.4266V46.125H36.9641Z" fill="#104076"/>
    <path d="M31.6312 27.2334H26.4824C25.9647 27.2334 25.5449 27.6532 25.5449 28.1709C25.5449 28.6886 25.9647 29.1084 26.4824 29.1084H31.6312C32.1489 29.1084 32.5687 28.6886 32.5687 28.1709C32.5687 27.6532 32.1489 27.2334 31.6312 27.2334Z" fill="#104076"/>
    <path d="M31.6312 31.7266H26.4824C25.9647 31.7266 25.5449 32.1464 25.5449 32.6641C25.5449 33.1817 25.9647 33.6016 26.4824 33.6016H31.6312C32.1489 33.6016 32.5687 33.1817 32.5687 32.6641C32.5687 32.1464 32.1489 31.7266 31.6312 31.7266Z" fill="#104076"/>
    <path d="M31.6312 36.2202H26.4824C25.9647 36.2202 25.5449 36.64 25.5449 37.1577C25.5449 37.6754 25.9647 38.0952 26.4824 38.0952H31.6312C32.1489 38.0952 32.5687 37.6754 32.5687 37.1577C32.5687 36.64 32.1489 36.2202 31.6312 36.2202Z" fill="#104076"/>
    <path d="M31.6312 40.7134H26.4824C25.9647 40.7134 25.5449 41.1332 25.5449 41.6509C25.5449 42.1686 25.9647 42.5884 26.4824 42.5884H31.6312C32.1489 42.5884 32.5687 42.1686 32.5687 41.6509C32.5687 41.1332 32.1489 40.7134 31.6312 40.7134Z" fill="#104076"/>
</svg>
