<svg width="36" height="36" viewBox="0 0 36 36" fill="none" xmlns="http://www.w3.org/2000/svg">
    <g clip-path="url(#clip0_1_11208)">
        <path d="M1.32461 10.8442H16.5051C16.9368 10.8442 17.287 11.1944 17.287 11.6261V19.1467C17.287 19.698 16.8398 20.1452 16.2885 20.1452H1.32461C0.773359 20.1452 0.326172 19.698 0.326172 19.1467V11.8434C0.326172 11.2921 0.773359 10.8449 1.32461 10.8449V10.8442Z" stroke="#104076" stroke-width="0.5" stroke-miterlimit="10"/>
        <path d="M19.7311 10.6489H34.9116C35.3433 10.6489 35.6935 10.9991 35.6935 11.4308V18.9514C35.6935 19.5027 35.2463 19.9499 34.695 19.9499H19.7318C19.1806 19.9499 18.7334 19.5027 18.7334 18.9514V11.6481C18.7334 11.0968 19.1806 10.6496 19.7318 10.6496L19.7311 10.6489Z" stroke="#104076" stroke-width="0.5" stroke-miterlimit="10"/>
        <path d="M3.08008 13.1025V17.6159" stroke="#104076" stroke-width="0.5" stroke-linecap="round" stroke-linejoin="round"/>
        <path d="M5.91992 13.1025V17.6159" stroke="#104076" stroke-width="0.5" stroke-linecap="round" stroke-linejoin="round"/>
        <path d="M8.75977 13.1025V17.6159" stroke="#104076" stroke-width="0.5" stroke-linecap="round" stroke-linejoin="round"/>
        <path d="M11.5996 13.1025V17.6159" stroke="#104076" stroke-width="0.5" stroke-linecap="round" stroke-linejoin="round"/>
        <path d="M14.4395 13.1025V17.6159" stroke="#104076" stroke-width="0.5" stroke-linecap="round" stroke-linejoin="round"/>
        <path d="M21.4424 13.1025V17.6159" stroke="#104076" stroke-width="0.5" stroke-linecap="round" stroke-linejoin="round"/>
        <path d="M24.2822 13.1025V17.6159" stroke="#104076" stroke-width="0.5" stroke-linecap="round" stroke-linejoin="round"/>
        <path d="M27.1221 13.1025V17.6159" stroke="#104076" stroke-width="0.5" stroke-linecap="round" stroke-linejoin="round"/>
        <path d="M29.9629 13.1025V17.6159" stroke="#104076" stroke-width="0.5" stroke-linecap="round" stroke-linejoin="round"/>
        <path d="M32.8027 13.1025V17.6159" stroke="#104076" stroke-width="0.5" stroke-linecap="round" stroke-linejoin="round"/>
        <path d="M35.283 21.8174H0.703281C0.439997 21.8174 0.226562 22.0308 0.226562 22.2941V23.8304C0.226562 24.0937 0.439997 24.3071 0.703281 24.3071H35.283C35.5463 24.3071 35.7597 24.0937 35.7597 23.8304V22.2941C35.7597 22.0308 35.5463 21.8174 35.283 21.8174Z" stroke="#104076" stroke-width="0.5" stroke-linecap="round" stroke-linejoin="round"/>
        <path d="M-0.0332031 26.8496H35.9668" stroke="#104076" stroke-width="0.5" stroke-linecap="round" stroke-linejoin="round"/>
        <path d="M2.14551 10.7683V9.7832" stroke="#104076" stroke-width="0.5" stroke-linecap="round" stroke-linejoin="round"/>
        <path d="M2.14551 10.7683V9.7832" stroke="#104076" stroke-width="0.5" stroke-linecap="round" stroke-linejoin="round"/>
        <path d="M15.6133 10.7683V9.7832" stroke="#104076" stroke-width="0.5" stroke-linecap="round" stroke-linejoin="round"/>
        <path d="M20.5801 10.7683V9.7832" stroke="#104076" stroke-width="0.5" stroke-linecap="round" stroke-linejoin="round"/>
        <path d="M34.0469 10.7683V9.7832" stroke="#104076" stroke-width="0.5" stroke-linecap="round" stroke-linejoin="round"/>
        <path d="M2.56629 24.3076C2.46363 24.534 2.40527 24.7843 2.40527 25.0494C2.40527 26.0436 3.21105 26.8494 4.20527 26.8494C5.19949 26.8494 6.00527 26.0436 6.00527 25.0494C6.00527 24.785 5.94691 24.534 5.84426 24.3076H2.56629Z" stroke="#104076" stroke-width="0.5" stroke-linecap="round" stroke-linejoin="round"/>
        <path d="M9.33582 24.3076C9.23316 24.534 9.1748 24.7843 9.1748 25.0494C9.1748 26.0436 9.98059 26.8494 10.9748 26.8494C11.969 26.8494 12.7748 26.0436 12.7748 25.0494C12.7748 24.785 12.7164 24.534 12.6138 24.3076H9.33582Z" stroke="#104076" stroke-width="0.5" stroke-linecap="round" stroke-linejoin="round"/>
        <path d="M22.4589 24.3076C22.3562 24.534 22.2979 24.7843 22.2979 25.0494C22.2979 26.0436 23.1036 26.8494 24.0979 26.8494C25.0921 26.8494 25.8979 26.0436 25.8979 25.0494C25.8979 24.785 25.8395 24.534 25.7368 24.3076H22.4589Z" stroke="#104076" stroke-width="0.5" stroke-linecap="round" stroke-linejoin="round"/>
        <path d="M29.2274 24.3076C29.1248 24.534 29.0664 24.7843 29.0664 25.0494C29.0664 26.0436 29.8722 26.8494 30.8664 26.8494C31.8606 26.8494 32.6664 26.0436 32.6664 25.0494C32.6664 24.785 32.608 24.534 32.5054 24.3076H29.2274Z" stroke="#104076" stroke-width="0.5" stroke-linecap="round" stroke-linejoin="round"/>
    </g>
    <defs>
        <clipPath id="clip0_1_11208">
            <rect width="36" height="36" fill="white"/>
        </clipPath>
    </defs>
</svg>
