<svg width="36" height="20" viewBox="0 0 36 20" fill="none" xmlns="http://www.w3.org/2000/svg">
    <g clip-path="url(#clip0_1_11235)">
        <path d="M35.7093 10.1945C35.6863 10.1501 35.6516 10.1129 35.609 10.0867C35.5664 10.0606 35.5174 10.0466 35.4674 10.0463H28.3961V0.274909C28.3961 0.201999 28.3671 0.132074 28.3155 0.080519C28.264 0.0289636 28.1941 0 28.1211 0L22.7866 0C22.7137 8.67307e-05 22.6439 0.0290886 22.5924 0.0806346C22.5409 0.132181 22.512 0.202055 22.512 0.274909V2.90356C22.512 2.97655 22.5408 3.04625 22.5925 3.09764C22.6439 3.14935 22.7136 3.17815 22.7866 3.17815C22.8812 3.17808 22.9738 3.20608 23.0525 3.2586C23.1312 3.31112 23.1926 3.38581 23.2289 3.47321C23.2651 3.56062 23.2747 3.65682 23.2563 3.74964C23.2379 3.84247 23.1924 3.92776 23.1255 3.99472C23.0586 4.06168 22.9734 4.10731 22.8806 4.12583C22.7878 4.14436 22.6916 4.13495 22.6041 4.09879C22.5167 4.06264 22.4419 4.00136 22.3893 3.92272C22.3366 3.84407 22.3085 3.75158 22.3085 3.65695C22.3085 3.58404 22.2795 3.51411 22.2279 3.46256C22.1764 3.411 22.1065 3.38204 22.0335 3.38204C21.9606 3.38204 21.8907 3.411 21.8392 3.46256C21.7876 3.51411 21.7586 3.58404 21.7586 3.65695C21.7555 3.84906 21.8062 4.03822 21.9051 4.20296C22.004 4.3677 22.1471 4.50142 22.3182 4.58895C22.4892 4.67648 22.6814 4.71432 22.8728 4.69817C23.0643 4.68203 23.2474 4.61255 23.4014 4.49761C23.5554 4.38267 23.674 4.22687 23.744 4.0479C23.8139 3.86893 23.8322 3.67394 23.7969 3.48506C23.7617 3.29619 23.6741 3.12098 23.5443 2.97933C23.4145 2.83767 23.2476 2.73523 23.0625 2.68364V2.41953H26.6694V10.0463H24.6239V6.7032C24.6237 6.63034 24.5947 6.56052 24.5432 6.509C24.4917 6.45748 24.4219 6.42846 24.349 6.42829H7.63846C7.56555 6.42829 7.49562 6.45725 7.44407 6.50881C7.39251 6.56037 7.36355 6.63029 7.36355 6.7032V10.0463H5.57075C5.49784 10.0463 5.42791 10.0753 5.37636 10.1268C5.3248 10.1784 5.29584 10.2483 5.29584 10.3212V11.8558H4.74602V9.7992C4.74568 9.7264 4.7166 9.65667 4.66512 9.60519C4.61364 9.55371 4.54392 9.52464 4.47111 9.52429H0.275476C0.202565 9.52429 0.132641 9.55326 0.0810855 9.60481C0.0295301 9.65637 0.000566502 9.72629 0.000566502 9.7992V12.1304C-0.000188834 12.1413 -0.000188834 12.1522 0.000566502 12.1631L1.58948 19.422C1.60327 19.4831 1.63753 19.5377 1.68657 19.5767C1.73561 19.6156 1.7965 19.6367 1.85915 19.6364H29.1943C29.2389 19.636 29.2827 19.6247 29.322 19.6036C29.3612 19.5825 29.3948 19.5522 29.4198 19.5153L35.6936 10.4809C35.7224 10.4394 35.7392 10.3907 35.7421 10.3402C35.7451 10.2898 35.7341 10.2395 35.7103 10.1949L35.7093 10.1945ZM23.0622 1.84811V0.549818H26.6697V1.84745H23.0622V1.84811ZM27.2192 2.13415V0.549818H27.8459L27.8466 10.0463H27.2192V2.13415ZM26.2351 10.5968V10.7398L23.3155 13.6813H22.4737L25.5419 10.6131L26.2351 10.5968ZM24.9319 13.6813H24.0908L26.2351 11.537V12.3617L24.9319 13.6813ZM26.2351 13.1315V13.6813H25.6853L26.2351 13.1315ZM19.1195 13.6813V10.5968H20.2191V13.6813H19.1195ZM17.4701 13.6813V10.5968H18.5697V13.6813H17.4701ZM15.8199 13.6813L15.8206 10.5968H16.9202V13.6813H15.8199ZM14.2258 13.6813V10.5968H15.2705V13.6813H14.2258ZM5.84533 11.482H13.5434V11.8342H5.84533V11.482ZM11.2728 10.0469V6.97876H12.3725V10.0469H11.2728ZM9.62337 10.0469V6.97876H10.723V10.0469H9.62337ZM7.97326 10.0469V6.97876H9.07289V10.0469H7.97326ZM12.9226 6.97876H14.0222V10.0469H12.9226V6.97876ZM22.4682 10.5968H23.1502L22.4682 11.2788V10.5968ZM22.1933 10.0469H16.2709V9.6948H24.0797V10.0469H22.1933ZM16.2709 8.78727H24.0797V9.13942H16.2709V8.78727ZM24.0797 8.23746H16.2709V7.88564H24.0797V8.23746ZM15.672 10.0466H14.5721V6.97844H15.6717L15.672 10.0466ZM13.533 12.4053V12.7574H5.83486V12.4053H13.5326H13.533ZM5.83486 13.3072H13.5326V13.681H5.83486V13.3072ZM20.7699 10.5961H21.8696L21.8693 13.6813H20.7696L20.7699 10.5961ZM22.4528 12.8945L22.4521 12.0315L23.9206 10.5964H24.7617L22.4528 12.8945ZM24.0636 7.33516L16.2713 7.33549V6.97811H24.08L24.0636 7.33516ZM7.63846 10.5964H13.5608V10.9319H5.863V10.5797L7.63846 10.5964ZM0.550712 10.0466H4.18573V11.8283H0.551039V10.0466H0.550712ZM29.0454 19.114H2.10133L0.633185 12.4056H5.31253V13.9399C5.31253 14.0128 5.34149 14.0827 5.39305 14.1342C5.4446 14.1858 5.51453 14.2148 5.58744 14.2148H26.51C26.5828 14.2144 26.6525 14.1853 26.704 14.1339C26.7555 14.0824 26.7845 14.0127 26.7849 13.9399V10.5968H34.9179L29.0454 19.114Z" fill="#104076"/>
        <path d="M1.52331 10.1665C1.31174 10.1665 1.10884 10.2506 0.959235 10.4002C0.809632 10.5498 0.725586 10.7527 0.725586 10.9642C0.725586 11.1758 0.809632 11.3787 0.959235 11.5283C1.10884 11.6779 1.31174 11.762 1.52331 11.762C1.73488 11.762 1.93779 11.6779 2.08739 11.5283C2.23699 11.3787 2.32104 11.1758 2.32104 10.9642C2.32104 10.7527 2.23699 10.5498 2.08739 10.4002C1.93779 10.2506 1.73488 10.1665 1.52331 10.1665ZM1.52331 11.2112C1.45769 11.2112 1.39476 11.1851 1.34836 11.1387C1.30196 11.0923 1.2759 11.0294 1.2759 10.9637C1.2759 10.8981 1.30196 10.8352 1.34836 10.7888C1.39476 10.7424 1.45769 10.7163 1.52331 10.7163C1.58893 10.7163 1.65186 10.7424 1.69826 10.7888C1.74466 10.8352 1.77073 10.8981 1.77073 10.9637C1.77073 11.0294 1.74466 11.0923 1.69826 11.1387C1.65186 11.1851 1.58893 11.2112 1.52331 11.2112Z" fill="#104076"/>
        <path d="M3.16827 10.1665C3.05011 10.1662 2.93336 10.1921 2.82644 10.2424C2.71951 10.2927 2.6251 10.3661 2.55001 10.4573C2.47492 10.5486 2.42102 10.6553 2.39223 10.7699C2.36343 10.8845 2.36044 11.0041 2.38348 11.12C2.40652 11.2359 2.45501 11.3452 2.52545 11.4401C2.59589 11.5349 2.68653 11.613 2.7908 11.6685C2.89508 11.7241 3.01039 11.7558 3.12842 11.7614C3.24645 11.767 3.36424 11.7463 3.47329 11.7008C3.64399 11.6304 3.78495 11.5029 3.87213 11.3401C3.9593 11.1774 3.98727 10.9894 3.95127 10.8083C3.91527 10.6272 3.81752 10.4642 3.67472 10.3472C3.53192 10.2301 3.35291 10.1663 3.16827 10.1665ZM3.16827 11.2112C3.13582 11.2112 3.10369 11.2049 3.07369 11.1925C3.0437 11.1801 3.01643 11.1619 2.99346 11.139C2.97048 11.1161 2.95225 11.0889 2.93979 11.0589C2.92733 11.029 2.9209 10.9968 2.92085 10.9644C2.92081 10.9319 2.92716 10.8998 2.93954 10.8698C2.95192 10.8398 2.97008 10.8126 2.99299 10.7896C3.01591 10.7666 3.04312 10.7484 3.07309 10.7359C3.10305 10.7235 3.13517 10.717 3.16762 10.717C3.23315 10.7169 3.29603 10.7428 3.34243 10.7891C3.38883 10.8354 3.41495 10.8982 3.41504 10.9637C3.41512 11.0293 3.38917 11.0922 3.3429 11.1386C3.29662 11.185 3.23381 11.2111 3.16827 11.2112ZM29.3203 14.912C29.435 14.9142 29.5491 14.8935 29.6557 14.8512C29.7623 14.8088 29.8595 14.7456 29.9414 14.6653C30.0233 14.5849 30.0884 14.489 30.1328 14.3832C30.1773 14.2775 30.2001 14.1639 30.2001 14.0491C30.2001 13.9344 30.1773 13.8208 30.1328 13.715C30.0884 13.6092 30.0233 13.5133 29.9414 13.4329C29.8595 13.3526 29.7623 13.2894 29.6557 13.247C29.5491 13.2047 29.435 13.184 29.3203 13.1863C29.0944 13.1907 28.8792 13.2835 28.721 13.4448C28.5627 13.6062 28.4741 13.8231 28.4741 14.0491C28.4741 14.2751 28.5627 14.492 28.721 14.6534C28.8792 14.8147 29.0944 14.9076 29.3203 14.912ZM29.3203 13.7357C29.3822 13.7359 29.4427 13.7542 29.4941 13.7886C29.5456 13.823 29.5858 13.8717 29.6096 13.9288C29.6331 13.9861 29.639 14.0491 29.6268 14.1098C29.6146 14.1704 29.5848 14.2262 29.541 14.2699C29.4972 14.3137 29.4415 14.3436 29.3808 14.3558C29.3201 14.368 29.2572 14.362 29.1999 14.3386C29.1331 14.3107 29.078 14.2605 29.044 14.1966C29.0099 14.1327 28.9991 14.059 29.0132 13.988C29.0274 13.917 29.0656 13.8531 29.1216 13.8071C29.1775 13.7611 29.2479 13.7359 29.3203 13.7357ZM13.4394 16.0394H6.18115C6.10824 16.0394 6.03831 16.0684 5.98676 16.1199C5.9352 16.1715 5.90624 16.2414 5.90624 16.3143C5.90624 16.3872 5.9352 16.4572 5.98676 16.5087C6.03831 16.5603 6.10824 16.5892 6.18115 16.5892H13.4397H13.4394C13.5123 16.5892 13.5822 16.5603 13.6338 16.5087C13.6853 16.4572 13.7143 16.3872 13.7143 16.3143C13.7143 16.2414 13.6853 16.1715 13.6338 16.1199C13.5822 16.0684 13.5123 16.0394 13.4394 16.0394ZM13.4394 17.2824H6.18115C6.14504 17.2824 6.1093 17.2895 6.07594 17.3033C6.04259 17.3171 6.01228 17.3374 5.98676 17.3629C5.96123 17.3884 5.94098 17.4188 5.92716 17.4521C5.91335 17.4855 5.90624 17.5212 5.90624 17.5573C5.90624 17.5934 5.91335 17.6292 5.92716 17.6625C5.94098 17.6959 5.96123 17.7262 5.98676 17.7517C6.01228 17.7772 6.04259 17.7975 6.07594 17.8113C6.1093 17.8251 6.14504 17.8322 6.18115 17.8322H13.4397H13.4394C13.5123 17.8322 13.5822 17.8033 13.6338 17.7517C13.6853 17.7001 13.7143 17.6302 13.7143 17.5573C13.7143 17.4844 13.6853 17.4145 13.6338 17.3629C13.5822 17.3114 13.5123 17.2824 13.4394 17.2824Z" fill="#104076"/>
    </g>
    <defs>
        <clipPath id="clip0_1_11235">
            <rect width="36" height="19.6364" fill="white"/>
        </clipPath>
    </defs>
</svg>
