<svg width="36" height="17" viewBox="0 0 36 17" fill="none" xmlns="http://www.w3.org/2000/svg">
    <g clip-path="url(#clip0_1_11199)">
        <path d="M30.4413 13.6239C30.991 13.6239 31.4623 14.0659 31.4623 14.6688C31.4623 15.2312 31.0303 15.7135 30.4413 15.7135C29.8914 15.7135 29.42 15.2715 29.42 14.6688C29.42 14.1061 29.8914 13.6239 30.4413 13.6239ZM30.4413 15.3519C30.5343 15.3523 30.6264 15.3339 30.7123 15.2977C30.7983 15.2615 30.8763 15.2082 30.942 15.141C31.0077 15.0737 31.0598 14.9938 31.0951 14.9059C31.1305 14.8179 31.1485 14.7237 31.148 14.6286C31.1485 14.5335 31.1305 14.4392 31.0951 14.3513C31.0598 14.2634 31.0077 14.1834 30.942 14.1162C30.8763 14.0489 30.7983 13.9957 30.7123 13.9595C30.6264 13.9232 30.5343 13.9048 30.4413 13.9052C30.3484 13.9048 30.2563 13.9232 30.1703 13.9594C30.0843 13.9957 30.0062 14.0489 29.9405 14.1162C29.8748 14.1834 29.8227 14.2633 29.7873 14.3513C29.7519 14.4392 29.7339 14.5335 29.7343 14.6286C29.734 14.7237 29.752 14.8179 29.7874 14.9058C29.8228 14.9938 29.8749 15.0737 29.9406 15.1409C30.0063 15.2081 30.0844 15.2614 30.1703 15.2976C30.2563 15.3338 30.3484 15.3523 30.4413 15.3519ZM30.4413 12.2574C31.7376 12.2574 32.7586 13.3425 32.7586 14.6283C32.7586 15.9543 31.698 16.9992 30.4413 16.9992C29.145 16.9992 28.1238 15.9141 28.1238 14.6283C28.0847 13.3425 29.145 12.2574 30.4413 12.2574ZM30.4413 16.5575C30.6838 16.5577 30.9239 16.509 31.148 16.4142C31.3721 16.3194 31.5757 16.1803 31.7471 16.0048C31.9186 15.8294 32.0545 15.6211 32.1472 15.3919C32.2399 15.1626 32.2875 14.9169 32.2873 14.6688C32.2875 14.4207 32.24 14.175 32.1473 13.9457C32.0546 13.7164 31.9187 13.5081 31.7472 13.3326C31.5757 13.1572 31.3721 13.018 31.1481 12.9232C30.924 12.8283 30.6838 12.7796 30.4413 12.7798C30.1988 12.7796 29.9586 12.8282 29.7345 12.9231C29.5104 13.0179 29.3068 13.1571 29.1353 13.3325C28.9638 13.508 28.8278 13.7163 28.7351 13.9456C28.6424 14.1749 28.5948 14.4207 28.5951 14.6688C28.5949 14.9169 28.6425 15.1626 28.7352 15.3919C28.8279 15.6212 28.9639 15.8295 29.1354 16.0049C29.3068 16.1804 29.5105 16.3195 29.7346 16.4143C29.9587 16.5091 30.1988 16.5578 30.4413 16.5575ZM9.38769 13.6239C9.93739 13.6239 10.4087 14.0659 10.4087 14.6688C10.4087 15.2312 9.97671 15.7135 9.38769 15.7135C8.83772 15.7135 8.3664 15.2715 8.3664 14.6688C8.40545 14.1061 8.83772 13.6239 9.38769 13.6239ZM9.38769 15.3519C9.48063 15.3523 9.57271 15.3338 9.65864 15.2976C9.74456 15.2614 9.82263 15.2081 9.88833 15.1409C9.95403 15.0736 10.0061 14.9937 10.0414 14.9058C10.0768 14.8179 10.0948 14.7237 10.0944 14.6286C10.0948 14.5335 10.0768 14.4393 10.0414 14.3513C10.0061 14.2634 9.95403 14.1835 9.88833 14.1163C9.82263 14.049 9.74456 13.9958 9.65864 13.9595C9.57271 13.9233 9.48063 13.9049 9.38769 13.9052C9.29474 13.9048 9.20262 13.9232 9.11667 13.9594C9.03071 13.9957 8.95261 14.0489 8.88688 14.1162C8.82115 14.1834 8.76909 14.2633 8.7337 14.3513C8.69832 14.4392 8.68031 14.5335 8.68071 14.6286C8.71975 15.0303 8.99502 15.3519 9.38769 15.3519ZM3.92788 13.6236C4.47757 13.6236 4.94889 14.0659 4.94889 14.6688C4.94889 15.2312 4.51689 15.7135 3.92788 15.7135C3.37791 15.7135 2.90658 15.2715 2.90658 14.6688C2.94563 14.1061 3.37791 13.6236 3.92788 13.6236ZM3.92788 15.3519C4.02081 15.3523 4.11289 15.3338 4.19882 15.2976C4.28474 15.2614 4.36281 15.2081 4.42851 15.1409C4.49421 15.0736 4.54625 14.9937 4.58162 14.9058C4.61699 14.8179 4.63499 14.7237 4.63458 14.6286C4.63499 14.5335 4.61698 14.4392 4.58159 14.3513C4.5462 14.2633 4.49414 14.1834 4.42841 14.1162C4.36268 14.0489 4.28458 13.9957 4.19863 13.9594C4.11267 13.9232 4.02056 13.9048 3.9276 13.9052C3.83467 13.9049 3.74258 13.9233 3.65666 13.9595C3.57073 13.9958 3.49267 14.049 3.42697 14.1163C3.36127 14.1835 3.30923 14.2634 3.27386 14.3513C3.23849 14.4393 3.22049 14.5335 3.22089 14.6286C3.25994 15.0303 3.5352 15.3519 3.92788 15.3519ZM24.1959 14.3472H26.9848V14.6685H24.1959V14.3472ZM24.5888 8.96191C24.3136 8.96191 24.0779 8.72108 24.0779 8.39921V6.34986C24.0779 6.02828 24.3136 5.78716 24.6279 5.78716H26.7491C27.0631 5.78716 27.2595 6.028 27.3378 6.26939L28.0448 8.56014V8.60038C28.0448 8.92168 27.8092 9.1628 27.4949 9.1628L24.5888 8.96191ZM27.6918 8.68056L26.9848 6.38953C26.9061 6.18836 26.7882 6.10818 26.6705 6.10818H24.5495C24.4318 6.10818 24.3141 6.22859 24.3141 6.34901V8.39864C24.3141 8.51934 24.4318 8.63976 24.5495 8.63976L27.4564 8.88088C27.5738 8.88144 27.6918 8.80155 27.6918 8.68056ZM19.0108 2.17013H21.3281C21.6424 2.17013 21.878 2.41096 21.878 2.73255V3.73725C21.878 4.05883 21.6424 4.29995 21.3281 4.29995H19.0108C18.6965 4.29995 18.4608 4.05911 18.4608 3.73725V2.73255C18.4608 2.41096 18.6967 2.17013 19.0108 2.17013ZM18.7754 3.73696C18.7754 3.85766 18.8931 3.97808 19.0108 3.97808H21.3286C21.4463 3.97808 21.564 3.85766 21.564 3.73725V2.73226C21.564 2.61185 21.4463 2.49143 21.3286 2.49143H19.0108C18.8931 2.49143 18.7754 2.61185 18.7754 2.73226V3.73696ZM25.0602 10.971H24.1962V10.6494H25.0602V10.971ZM20.5823 6.22859H19.9933V5.90729H20.7396C20.7786 5.90729 20.8182 5.9073 20.8573 5.94753C20.8966 5.98748 20.8966 6.02799 20.8966 6.06795V8.27851H20.5823V6.22888V6.22859ZM0.0786462 13.5431L1.45357 12.6189L1.53222 12.5789H2.78917C3.14252 12.3778 3.49615 12.2574 3.92815 12.2574C4.36015 12.2574 4.71351 12.3778 5.06714 12.5789H5.10618L7.73806 10.9311L7.89508 11.2124L5.69548 12.6192H8.20938C8.56274 12.418 8.91609 12.2976 9.34837 12.2976C9.78037 12.2976 10.1337 12.4183 10.4871 12.6192H15.1228V8.31846C15.1228 8.27823 15.1228 8.238 15.1615 8.19776C15.2009 8.15781 15.2405 8.15781 15.2795 8.15781H15.7902V0.240628C15.7902 0.119928 15.8688 -0.000488281 16.0258 -0.000488281H16.3794C17.3614 -0.000488281 20.2287 0.119928 23.8425 1.52668C25.8455 2.29026 26.9454 2.93343 27.5347 3.37571C28.1238 3.81771 28.3204 4.17925 28.3204 4.17925C28.4381 4.3399 28.5167 4.62124 28.5954 4.9026L28.7524 5.46501C28.7914 5.54548 28.7524 5.62566 28.713 5.66618C28.6593 5.71653 28.5895 5.74513 28.5167 5.74664H27.9277L29.0667 8.11758C29.7343 8.19804 32.7589 8.59981 34.9978 9.80568C35.1155 9.88615 35.1546 9.96605 35.1546 10.0066C35.1546 10.0066 35.7438 11.9355 35.7438 13.5029V15.0301C35.7438 15.1105 35.7045 15.1508 35.6652 15.1907C35.6259 15.2309 35.5472 15.2712 35.5082 15.2712H33.2299C33.1513 15.2712 33.1122 15.2312 33.0729 15.1907C33.0339 15.1508 32.9943 15.0703 32.9943 15.0301V14.6685C32.9943 13.2218 31.8553 12.0562 30.4017 12.016C28.9878 12.016 27.8488 13.1813 27.8092 14.6685V15.4321C27.8092 15.5126 27.7701 15.5528 27.7308 15.5928C27.6915 15.633 27.6128 15.6732 27.5738 15.6732H15.9862C15.9076 15.6732 15.8685 15.633 15.8292 15.5928H14.1009C14.0616 15.5928 14.0223 15.5928 13.9832 15.5528C13.9439 15.5126 13.9439 15.4723 13.9439 15.4321V14.8694H11.705C11.587 16.0756 10.605 16.9998 9.38741 16.9998C8.16978 16.9998 7.18782 16.0756 7.07012 14.8697H6.24489C6.12748 16.0756 5.14523 16.9998 3.92788 16.9998C2.71052 16.9998 1.72828 16.0756 1.61058 14.8697H0.157015C0.117692 14.8697 0.0783692 14.8697 0.0390462 14.8297C0 14.7895 0 14.7493 0 14.709V13.6644C0 13.6236 0.0393231 13.5834 0.0786462 13.5431ZM33.4659 14.6685V14.7889H35.2728V13.5834H33.3089C33.4268 13.9452 33.4659 14.3067 33.4659 14.6685ZM16.3008 15.191H27.3777V14.6685C27.3777 14.307 27.4564 13.9452 27.5743 13.6236H16.3008V15.191ZM16.3008 13.3023H27.6918C27.8423 12.9901 28.0413 12.7049 28.281 12.458V9.6048H28.5951V12.2171C29.106 11.8148 29.7341 11.574 30.4023 11.574C31.6199 11.574 32.6412 12.297 33.1516 13.3017H35.2725C35.2335 12.0961 34.8405 10.6492 34.7619 10.2876C33.5836 9.64446 32.1303 9.24269 30.991 9.0013C29.8124 8.76046 28.9484 8.67999 28.9484 8.63976C28.9079 8.64051 28.868 8.62963 28.8333 8.60834C28.7985 8.58706 28.7703 8.55622 28.7518 8.51935L27.4165 5.66589V5.58543C27.2988 5.50496 26.8665 5.34431 25.8455 5.34431H17.7931V12.2965H23.0566V5.90673H23.3709V12.2965H27.4951V12.618H16.3005L16.3008 13.3023ZM16.3008 12.2571H17.4794V3.09408H17.7937V4.98306H25.8458C26.9848 4.98306 27.4168 5.18423 27.6134 5.30464H28.281C28.242 5.22418 28.242 5.14399 28.2024 5.06353C28.1634 4.94283 28.1238 4.78189 28.0847 4.66119C28.0454 4.62153 28.0454 4.54078 28.0454 4.54078V4.50083C27.9277 4.38041 27.9277 4.21948 27.3384 3.77748C26.7887 3.37571 25.7281 2.77278 23.7248 2.0092C20.1503 0.642962 17.3224 0.482028 16.4188 0.482028H16.3404V12.2574L16.3008 12.2571ZM15.8292 8.47996H15.4758V12.5789H15.8292V8.47996ZM14.2975 15.2715H15.8292V14.8691H14.2975V15.2715ZM14.2975 14.5886H15.8292V12.9405H14.2975V14.5883V14.5886ZM11.705 14.5886H13.9439V12.9H10.9587C11.43 13.302 11.705 13.9047 11.705 14.5878V14.5886ZM9.38741 16.5578C9.62994 16.5581 9.87013 16.5094 10.0942 16.4145C10.3184 16.3197 10.522 16.1806 10.6935 16.0051C10.865 15.8296 11.001 15.6213 11.0936 15.392C11.1863 15.1627 11.2339 14.9169 11.2337 14.6688C11.2339 14.4207 11.1863 14.1749 11.0936 13.9456C11.001 13.7163 10.865 13.508 10.6935 13.3325C10.522 13.1571 10.3184 13.0179 10.0942 12.9231C9.87013 12.8282 9.62994 12.7796 9.38741 12.7798C9.14491 12.7796 8.90475 12.8283 8.68067 12.9232C8.45659 13.018 8.25299 13.1572 8.08153 13.3326C7.91007 13.5081 7.77411 13.7164 7.68144 13.9457C7.58876 14.175 7.54119 14.4207 7.54145 14.6688C7.54119 14.9169 7.58876 15.1627 7.68144 15.3919C7.77411 15.6212 7.91007 15.8295 8.08153 16.005C8.25299 16.1805 8.45659 16.3196 8.68067 16.4145C8.90475 16.5093 9.14491 16.558 9.38741 16.5578ZM6.24517 14.5886H7.07012C7.11067 13.952 7.37588 13.3521 7.81643 12.9005H5.49914C5.93114 13.3026 6.24517 13.9052 6.24517 14.5883V14.5886ZM3.9276 16.5578C4.17012 16.5581 4.41032 16.5094 4.63443 16.4145C4.85854 16.3197 5.06217 16.1806 5.23366 16.0051C5.40515 15.8296 5.54114 15.6213 5.63383 15.392C5.72652 15.1627 5.7741 14.9169 5.77385 14.6688C5.7741 14.4207 5.72652 14.1749 5.63383 13.9456C5.54114 13.7163 5.40515 13.508 5.23366 13.3325C5.06217 13.1571 4.85854 13.0179 4.63443 12.9231C4.41032 12.8282 4.17012 12.7796 3.9276 12.7798C3.6851 12.7796 3.44494 12.8283 3.22086 12.9232C2.99678 13.018 2.79318 13.1572 2.62172 13.3326C2.45026 13.5081 2.3143 13.7164 2.22162 13.9457C2.12895 14.175 2.08138 14.4207 2.08163 14.6688C2.08138 14.9169 2.12895 15.1627 2.22162 15.3919C2.3143 15.6212 2.45026 15.8295 2.62172 16.005C2.79318 16.1805 2.99678 16.3196 3.22086 16.4145C3.44494 16.5093 3.6851 16.558 3.9276 16.5578ZM0.314031 14.5886H1.61003C1.65052 13.9517 1.91585 13.3516 2.35662 12.9H1.57098L0.314031 13.784V14.5878V14.5886Z" fill="#104076"/>
    </g>
    <defs>
        <clipPath id="clip0_1_11199">
            <rect width="36" height="17" fill="white"/>
        </clipPath>
    </defs>
</svg>
