<svg width="16" height="16" viewBox="0 0 16 16" fill="none" xmlns="http://www.w3.org/2000/svg">
    <g clip-path="url(#clip0_1400_2746)">
        <path d="M9.99731 0C10.0824 0.0502715 10.1547 0.0904005 10.2324 0.155665C11.5147 1.23562 12.6599 2.73891 13.9339 3.85723L14.0759 4.09007L14.0905 14.6978C14.0371 15.3729 13.4934 15.9197 12.824 15.9925C9.53076 15.963 6.22386 16.0542 2.93814 15.9462C2.37104 15.7883 1.93403 15.264 1.90625 14.6669L1.90801 1.26605C1.95917 0.782736 2.25065 0.384533 2.66694 0.150814L3.09424 0H9.99731ZM9.40376 0.937078H3.23492C3.11982 0.937078 2.88125 1.15801 2.86582 1.28633L2.84333 14.5726C2.85171 14.8371 3.06382 15.0484 3.32752 15.0567L12.8028 15.0343C12.9311 15.0188 13.1521 14.7803 13.1521 14.6652V4.68539H10.6063C10.1173 4.68539 9.40376 3.97145 9.40376 3.48284V0.937078ZM12.465 3.74831L10.3408 1.62412V3.35761C10.3408 3.48152 10.6059 3.74787 10.7311 3.74787H12.4646L12.465 3.74831Z" fill="#9CA9B0"/>
        <path d="M5.08715 6.62859L10.8582 6.62109C11.3539 6.67798 11.4377 7.33812 10.9848 7.52863C9.0048 7.57802 6.9957 7.57802 5.01571 7.52863C4.59017 7.354 4.62898 6.72428 5.08715 6.62859Z" fill="#9CA9B0"/>
        <path d="M5.08715 8.50359L10.8582 8.49609C11.3539 8.55298 11.4377 9.21312 10.9848 9.40363C9.0048 9.45302 6.9957 9.45302 5.01571 9.40363C4.59017 9.229 4.62898 8.59928 5.08715 8.50359Z" fill="#9CA9B0"/>
        <path d="M5.08715 10.3786L10.8582 10.3711C11.3539 10.428 11.4377 11.0881 10.9848 11.2786C9.0048 11.328 6.9957 11.328 5.01571 11.2786C4.59017 11.104 4.62898 10.4743 5.08715 10.3786Z" fill="#9CA9B0"/>
        <path d="M5.08763 12.2509L9.01322 12.2461C9.48683 12.3387 9.55341 12.96 9.11111 13.1505L5.11409 13.1774C4.60608 13.0804 4.57742 12.3674 5.08763 12.2505V12.2509Z" fill="#9CA9B0"/>
    </g>
    <defs>
        <clipPath id="clip0_1400_2746">
            <rect width="16" height="16" fill="white"/>
        </clipPath>
    </defs>
</svg>
