<svg width="18" height="18" viewBox="0 0 18 18" fill="none" xmlns="http://www.w3.org/2000/svg">
    <path d="M12.7866 0H5.21321C4.48841 0 3.90332 0.587712 3.90332 1.3112V16.6901C3.90332 17.4129 4.48841 18 5.21321 18H12.7866C13.5101 18 14.0965 17.4129 14.0965 16.6901V1.3112C14.0965 0.587712 13.5101 0 12.7866 0ZM7.13115 0.796298H10.8699C10.9644 0.796298 11.0411 0.937322 11.0411 1.1118C11.0411 1.28628 10.9644 1.42796 10.8699 1.42796H7.13115C7.03604 1.42796 6.9606 1.28628 6.9606 1.1118C6.9606 0.937322 7.03604 0.796298 7.13115 0.796298ZM9.00054 16.7059C8.53943 16.7059 8.16423 16.3307 8.16423 15.8689C8.16423 15.4071 8.53943 15.0332 9.00054 15.0332C9.46035 15.0332 9.83554 15.4071 9.83554 15.8689C9.83554 16.3307 9.46035 16.7059 9.00054 16.7059ZM13.1152 13.8401H4.88525V2.21245H13.1152V13.8401Z" fill="#4C5764"/>
</svg>
