<svg width="24" height="24" viewBox="0 0 24 24" fill="none" xmlns="http://www.w3.org/2000/svg">
    <path d="M12 14.1562C14.7442 14.1562 16.9688 11.9317 16.9688 9.1875C16.9688 6.44334 14.7442 4.21875 12 4.21875C9.25584 4.21875 7.03125 6.44334 7.03125 9.1875C7.03125 11.9317 9.25584 14.1562 12 14.1562Z" fill="#808080"/>
    <path d="M12 0C6.93398 0 2.8125 4.12148 2.8125 9.1875C2.8125 11.277 3.49627 13.2461 4.78987 14.8818L4.78983 14.8818L12 24L19.2102 14.8818C20.5038 13.2461 21.1875 11.277 21.1875 9.1875C21.1875 4.12148 17.066 0 12 0ZM12 15.5625C8.4848 15.5625 5.625 12.7027 5.625 9.1875C5.625 5.67234 8.4848 2.8125 12 2.8125C15.5152 2.8125 18.375 5.67234 18.375 9.1875C18.375 12.7027 15.5152 15.5625 12 15.5625Z" fill="#808080"/>
</svg>
