<svg width="24" height="24" viewBox="0 0 24 24" fill="none" xmlns="http://www.w3.org/2000/svg">
    <g clip-path="url(#clip0_123_319)">
        <path d="M21.8893 0.0117188C22.9324 0.325254 23.6871 1.07933 24.0007 2.12312V5.97021C23.7956 6.28838 23.5171 6.55363 23.1097 6.53378L23.1117 11.7197C23.0501 12.5062 22.0897 12.8865 21.5129 12.3296C21.4408 12.2601 21.2331 11.9393 21.2331 11.8586V6.53378H0.752764C0.497437 6.53378 0.027796 6.03371 0.0297804 5.75524C0.0807133 4.71739 -0.05158 3.59488 0.0238272 2.56697C0.11511 1.32671 1.02198 0.35965 2.18418 0.0117188H21.8893ZM22.1704 4.65654V2.66288C22.1704 2.266 21.5691 1.78114 21.1636 1.84001H2.86284C2.47324 1.80231 1.90239 2.2832 1.90239 2.66288V4.65654H22.1704Z" fill="white"/>
        <path d="M23.9995 18.6383V19.9051C23.8924 20.1941 23.8018 20.4799 23.6483 20.7504C23.3288 21.314 21.3676 23.2865 20.8093 23.7297C19.8138 24.5194 18.6926 23.3315 19.4711 22.3915L21.6533 20.1868H13.6542C13.6291 20.1868 13.4445 20.0916 13.3989 20.0664C12.7625 19.7152 12.7632 18.7812 13.3989 18.43C13.4439 18.4048 13.6291 18.3096 13.6542 18.3096H21.6064C20.9985 17.5535 20.1035 16.9622 19.4943 16.2227C18.6668 15.2199 19.8482 14.0795 20.8093 14.8607C21.867 16.1023 23.5246 16.9992 23.9989 18.6383H23.9995Z" fill="white"/>
        <path d="M1.70307 8.89059C2.25407 8.79534 2.72107 9.11879 2.83749 9.65723L2.83947 20.2116C2.86858 21.0913 3.42355 21.8355 4.28412 22.0511C8.36603 22.19 12.4704 22.0663 16.5603 22.114C17.6484 22.3561 17.5796 23.8583 16.4723 23.9886H4.41112C2.58811 23.8239 1.12693 22.3633 0.962891 20.5403L0.964875 9.70088C1.0039 9.33046 1.33463 8.95541 1.70307 8.89125V8.89059Z" fill="white"/>
        <path d="M9.67819 8.4209H14.3005C15.3139 8.69408 15.2775 10.0587 14.2608 10.2823L9.67819 10.275C8.6893 10.0117 8.6893 8.68416 9.67819 8.4209Z" fill="white"/>
    </g>
    <defs>
        <clipPath id="clip0_123_319">
            <rect width="24" height="24" fill="white"/>
        </clipPath>
    </defs>
</svg>
