<svg width="233" height="76" viewBox="0 0 233 76" fill="none" xmlns="http://www.w3.org/2000/svg">
    <path d="M142.24 -64.7139L60.7129 75.0173H129.946L211.248 -64.582L142.24 -64.7139Z" fill="black" fill-opacity="0.1"/>
    <path d="M90.4815 -16.8418H25.6516L24.974 -15.6872L1.01314 25.3853C-1.08113 28.9729 0.1046 32.775 4.26234 35.8101C8.42008 38.8451 14.8415 40.5771 21.8634 40.5771H61.1618L61.8393 39.4225L93.4228 -14.6975L94.6701 -16.8418H90.4815Z" fill="black" fill-opacity="0.1"/>
    <path d="M182.935 27.1465H247.765L248.443 25.9918L272.404 -15.0806C274.498 -18.6682 273.312 -22.4703 269.155 -25.5054C264.997 -28.5404 258.576 -30.2724 251.554 -30.2724H212.255L211.578 -29.1178L179.994 25.0021L178.747 27.1465H182.935Z" fill="black" fill-opacity="0.1"/>
    <path d="M155.595 75.0176H204.364C213.973 75.0176 222.35 71.7186 225.214 66.8031L240.351 40.8566L241.599 38.7122H172.58L171.903 39.8669L152.654 72.8732L151.406 75.0176H155.595Z" fill="black" fill-opacity="0.1"/>
</svg>
