<svg width="24" height="24" viewBox="0 0 24 24" fill="none" xmlns="http://www.w3.org/2000/svg">
    <g clip-path="url(#clip0_123_330)">
        <path d="M11.6164 -0.201728C12.8156 -0.36511 13.8356 0.566235 14.89 1.07027C16.2394 1.7152 17.7052 2.2199 19.1697 2.53344C20.7023 2.86152 22.8025 2.62406 23.0631 4.64815C22.9089 8.10233 23.5334 11.6623 22.3176 14.967C21.2685 17.8193 19.3569 19.9022 16.7692 21.4362C15.648 22.101 14.1346 23.0125 12.975 23.5443C12.3195 23.8446 11.7235 23.8651 11.0608 23.5628C9.90848 23.0376 8.35072 22.097 7.23218 21.4355C4.44939 19.7898 2.42398 17.4581 1.47081 14.3287C0.524248 11.2225 1.09708 7.80996 0.940311 4.59721C1.24789 2.61281 3.34871 2.85491 4.87538 2.52352C6.5899 2.15111 8.30442 1.5075 9.85556 0.697867C10.3596 0.434603 11.0799 -0.128966 11.6151 -0.201728H11.6164ZM11.8823 1.49824C11.6739 1.55381 10.9781 2.04527 10.7082 2.18617C8.782 3.1916 6.71029 3.93773 4.56713 4.34056C4.03135 4.44111 3.38443 4.45831 2.88436 4.57208C2.74876 4.60317 2.64293 4.7176 2.64028 4.85982C2.70973 9.60584 1.91267 13.9444 5.32782 17.7584C6.78569 19.387 9.56584 20.8792 11.541 21.8615C12.1039 22.1413 12.0245 22.0844 12.5696 21.8086C16.3016 19.9155 19.6056 18.0892 20.8961 13.8108C21.7415 11.0095 21.207 7.86486 21.3631 4.96697C21.3677 4.80491 21.3148 4.65145 21.1508 4.59457C18.1735 4.28169 15.4258 3.34373 12.8176 1.92092C12.5623 1.78201 12.1614 1.42482 11.883 1.4989L11.8823 1.49824Z" fill="white"/>
        <path d="M15.6047 8.0366C16.2866 7.95987 16.8237 8.80853 16.4064 9.37409L12.1075 14.0083C11.7172 14.3536 11.3296 14.4211 10.8897 14.1108C10.2283 13.6439 9.15139 12.6278 8.54482 12.0424C8.42642 11.928 8.17374 11.7077 8.10891 11.5741C7.72526 10.787 8.60171 10.0137 9.34123 10.4483L11.3832 12.2237L15.1899 8.21057C15.2872 8.14243 15.4935 8.04917 15.6053 8.0366H15.6047Z" fill="white"/>
    </g>
    <defs>
        <clipPath id="clip0_123_330">
            <rect width="24" height="24" fill="white"/>
        </clipPath>
    </defs>
</svg>
