<svg width="48" height="48" viewBox="0 0 48 48" fill="none" xmlns="http://www.w3.org/2000/svg">
    <path d="M9.75195 0.5H38.2529C39.0122 0.5 39.6279 1.11558 39.6279 1.875C39.6279 5.46593 42.3425 8.48182 45.8721 8.88965L46.2158 8.92188C46.54 8.94325 46.8449 9.07783 47.0771 9.30078L47.1719 9.40234C47.3825 9.64958 47.4978 9.96213 47.5 10.2842L47.4941 10.4229C46.8588 17.1295 45.0071 23.3963 41.9941 29.0527C41.6368 29.723 40.8037 29.977 40.1338 29.6201C39.4637 29.2632 39.2104 28.4302 39.5674 27.7598C42.148 22.915 43.823 17.5908 44.5596 11.9131L44.6162 11.4766L44.1914 11.3652C40.5391 10.4024 37.731 7.37998 37.041 3.65918L36.9658 3.25H11.0391L10.9639 3.65918C10.2711 7.39604 7.44251 10.4277 3.76758 11.377L3.35059 11.4844L3.39551 11.9131C4.39191 21.476 8.11237 29.8468 14.4668 36.8027C18.2686 40.9639 21.9972 43.4213 23.6426 44.3994L23.9014 44.5537L24.1582 44.3975C25.9584 43.3025 30.2839 40.3773 34.4941 35.3096V35.3086C34.9795 34.7245 35.8466 34.6446 36.4307 35.1299C37.0148 35.6152 37.0946 36.4824 36.6094 37.0664C30.7425 44.1285 24.7583 47.2345 24.5352 47.3486V47.3496C24.339 47.4501 24.1241 47.4999 23.9092 47.5C23.6982 47.5 23.4868 47.4512 23.293 47.3545H23.292C23.0756 47.2459 17.9332 44.6328 12.5488 38.7803C9.38479 35.3417 6.78699 31.486 4.82617 27.3223C2.37762 22.1225 0.921861 16.4262 0.50293 10.3887C0.477693 10.0241 0.599347 9.66409 0.839844 9.38867C1.05051 9.1479 1.33699 8.9895 1.64941 8.9375L1.78516 8.92188C5.48262 8.67899 8.37695 5.58395 8.37695 1.875C8.37695 1.11552 8.99239 0.5 9.75195 0.5ZM32.7285 13.0742C33.1701 12.4574 34.0291 12.3151 34.6465 12.7568C35.2639 13.1988 35.4065 14.0575 34.9648 14.6748L25.6875 27.6338C25.6697 27.6583 25.6539 27.6787 25.6396 27.6963L25.6387 27.6982C24.9312 28.5788 23.8993 29.1485 22.7822 29.2822L22.5576 29.3027C22.4617 29.309 22.3671 29.3128 22.2744 29.3125H22.2725C21.1682 29.3124 20.0943 28.886 19.291 28.1211L19.2852 28.1162C19.2847 28.1158 19.2844 28.1144 19.2832 28.1133L19.2754 28.1064L13.2949 22.2705C12.7516 21.7402 12.7412 20.8698 13.2715 20.3262C13.8021 19.7827 14.6724 19.7722 15.2158 20.3027L21.1885 26.1309L21.1963 26.1377C21.6302 26.5446 22.1248 26.5749 22.374 26.5586H22.375C22.6185 26.5422 23.0859 26.4509 23.458 26.0195L23.4727 26.002L23.4863 25.9844L32.7285 13.0742Z" fill="#104076" stroke="#E2E6E8"/>
</svg>
