<svg width="85" height="70" viewBox="0 0 85 70" fill="none" xmlns="http://www.w3.org/2000/svg">
    <path d="M51.6426 -59.6284L22.043 69.1219H47.1792L76.697 -59.5069L51.6426 -59.6284Z" fill="black" fill-opacity="0.1"/>
    <path d="M32.8506 -15.519H9.31317L9.06718 -14.4551L0.367836 23.3896C-0.392518 26.6953 0.0379764 30.1986 1.5475 32.9951C3.05703 35.7917 5.38841 37.3876 7.93783 37.3876H22.2056L22.4516 36.3237L33.9184 -13.5432L34.3713 -15.519H32.8506Z" fill="black" fill-opacity="0.1"/>
    <path d="M66.417 25.0127H89.9544L90.2004 23.9488L98.8997 -13.8959C99.6601 -17.2016 99.2296 -20.7049 97.7201 -23.5015C96.2106 -26.298 93.8792 -27.8939 91.3298 -27.8939H77.0619L76.8159 -26.83L65.3491 23.0369L64.8963 25.0127H66.417Z" fill="black" fill-opacity="0.1"/>
    <path d="M56.491 69.1221H74.1972C77.6859 69.1221 80.7273 66.0823 81.7672 61.5531L87.263 37.6456L87.7158 35.6698H62.6577L62.4117 36.7337L55.4231 67.1462L54.9703 69.1221H56.491Z" fill="black" fill-opacity="0.1"/>
</svg>
