<svg width="44" height="44" viewBox="0 0 44 44" fill="none" xmlns="http://www.w3.org/2000/svg">
    <g clip-path="url(#clip0_1_10381)">
        <path d="M22 0.879883C10.3356 0.879883 0.880005 10.3355 0.880005 21.9999C0.880005 33.6643 10.3356 43.1199 22 43.1199C33.6644 43.1199 43.12 33.6643 43.12 21.9999C43.12 10.3355 33.6644 0.879883 22 0.879883ZM30.1224 24.7081C30.1224 24.7081 31.9902 26.5517 32.45 27.4075C32.4632 27.4251 32.4698 27.4427 32.4742 27.4515C32.6612 27.7661 32.7052 28.0103 32.6128 28.1929C32.4588 28.4965 31.9308 28.6461 31.7504 28.6593H28.4504C28.2216 28.6593 27.742 28.5999 27.1612 28.1995C26.7146 27.8871 26.2746 27.3745 25.8456 26.8751C25.2054 26.1315 24.651 25.4891 24.0922 25.4891C24.0212 25.489 23.9507 25.5001 23.8832 25.5221C23.4608 25.6585 22.9196 26.2613 22.9196 27.8673C22.9196 28.3689 22.5236 28.6571 22.2442 28.6571H20.7328C20.218 28.6571 17.5362 28.4767 15.1602 25.9709C12.2518 22.9019 9.6338 16.7463 9.6118 16.6891C9.44681 16.2909 9.7878 16.0775 10.1596 16.0775H13.4926C13.937 16.0775 14.0822 16.3481 14.1834 16.5879C14.3022 16.8673 14.7378 17.9783 15.4528 19.2279C16.6122 21.2651 17.3228 22.0923 17.8926 22.0923C17.9994 22.091 18.1044 22.0638 18.1984 22.0131C18.942 21.5995 18.8034 18.9485 18.7704 18.3985C18.7704 18.2951 18.7682 17.2127 18.3876 16.6935C18.1148 16.3173 17.6506 16.1743 17.369 16.1215C17.483 15.9642 17.6331 15.8367 17.8068 15.7497C18.3172 15.4945 19.2368 15.4571 20.1498 15.4571H20.658C21.648 15.4703 21.9032 15.5341 22.2618 15.6243C22.9878 15.7981 23.0032 16.2667 22.9394 17.8705C22.9196 18.3259 22.8998 18.8407 22.8998 19.4479C22.8998 19.5799 22.8932 19.7207 22.8932 19.8703C22.8712 20.6865 22.8448 21.6127 23.4212 21.9933C23.4964 22.0404 23.5833 22.0656 23.672 22.0659C23.8722 22.0659 24.475 22.0659 26.1074 19.2653C26.6108 18.3639 27.0483 17.4271 27.4164 16.4625C27.4494 16.4053 27.5462 16.2293 27.6606 16.1611C27.745 16.118 27.8386 16.0961 27.9334 16.0973H31.8516C32.2784 16.0973 32.571 16.1611 32.626 16.3261C32.7228 16.5879 32.6084 17.3865 30.8198 19.8087L30.0212 20.8625C28.3998 22.9877 28.3998 23.0955 30.1224 24.7081Z" fill="white"/>
    </g>
    <defs>
        <clipPath id="clip0_1_10381">
            <rect width="44" height="44" fill="white"/>
        </clipPath>
    </defs>
</svg>
