<svg width="24" height="24" viewBox="0 0 24 24" fill="none" xmlns="http://www.w3.org/2000/svg">
    <g clip-path="url(#clip0_153_6297)">
        <path d="M14.0102 24C12.7163 24 11.4 23.994 10.1274 23.9888C8.85403 23.9828 7.53771 23.9775 6.24322 23.9775C5.27483 23.9775 4.40765 23.9808 3.5914 23.9874C2.5529 23.8465 1.73665 23.3981 1.22996 22.6903C0.705419 21.9574 0.542698 20.9963 0.758998 19.9115C1.14066 17.9965 1.67381 16.0412 2.18909 14.1501C2.65542 12.4389 3.13763 10.6695 3.50805 8.9298C3.73692 7.83044 5.15709 6.62393 6.22205 6.62393H8.40952L8.27326 6.36133C7.28437 4.45762 7.7765 2.09553 9.4176 0.86586C10.1743 0.299644 11.066 0 11.996 0C13.7846 0 15.3476 1.07951 15.9793 2.74972C16.406 3.87818 16.3154 5.16209 15.726 6.36529L15.599 6.62459H17.7792C18.7158 6.62459 19.9349 7.58901 20.2868 8.38475C20.6493 9.85982 21.0634 11.36 21.4642 12.8113C22.1052 15.1337 22.7686 17.5348 23.2423 19.9121C23.6378 21.8965 22.7587 23.3915 20.8901 23.9147C18.8878 23.9749 16.7652 24.0013 14.0108 24.0013L14.0102 24ZM6.37882 8.50646L6.36691 8.50845C5.90256 8.57327 5.49444 8.91856 5.32643 9.38886L5.32312 9.39746L2.49336 20.9143L2.49866 20.95C2.60581 21.6439 3.05693 22.0593 3.76867 22.1214H3.77661L20.1711 22.1228H20.1777C20.9589 22.0639 21.4067 21.6525 21.5079 20.8997L21.5125 20.8653L18.5624 9.1117L18.5366 9.08062C18.3183 8.81471 18.0008 8.50779 17.4743 8.49257H17.4716L6.37816 8.50779L6.37882 8.50646ZM12.0615 1.85938C11.9642 1.85938 11.863 1.86467 11.7625 1.87526C10.2299 2.03599 9.59289 3.27889 9.64977 4.36568C9.70666 5.45776 10.4654 6.63385 11.9953 6.63385C12.078 6.63385 12.1627 6.63054 12.2474 6.62327C13.3017 6.53529 14.407 5.7283 14.3422 4.16526C14.2959 3.05465 13.5623 1.86004 12.0615 1.86004V1.85938Z" fill="white"/>
    </g>
    <defs>
        <clipPath id="clip0_153_6297">
            <rect width="24" height="24" fill="white"/>
        </clipPath>
    </defs>
</svg>
