<svg width="42" height="48" viewBox="0 0 42 48" fill="none" xmlns="http://www.w3.org/2000/svg">
    <path d="M41.595 10.584L21.345 0.0840234C21.1286 -0.0280078 20.8714 -0.0280078 20.655 0.0840234L0.405 10.584C0.156187 10.7129 0 10.9698 0 11.25V47.25C0 47.6642 0.335812 48 0.75 48H41.25C41.6642 48 42 47.6642 42 47.25V11.25C42.0001 10.9698 41.8438 10.7129 41.595 10.584ZM26.25 45.75H19.5V39H20.25V41.25C20.25 41.6642 20.5858 42 21 42H24.75C25.1642 42 25.5 41.6642 25.5 41.25V39H26.25V45.75ZM21.75 40.5V39H24V40.5H21.75ZM34.5 45.75H27.75V39H28.5V41.25C28.5 41.6642 28.8358 42 29.25 42H33C33.4142 42 33.75 41.6642 33.75 41.25V39H34.5V45.75ZM30 40.5V39H32.25V40.5H30ZM34.5 37.5H27.75V30.75H28.5V33C28.5 33.4142 28.8358 33.75 29.25 33.75H33C33.4142 33.75 33.75 33.4142 33.75 33V30.75H34.5V37.5ZM30 32.25V30.75H32.25V32.25H30ZM35.25 29.25H27C26.5858 29.25 26.25 29.5858 26.25 30V37.5H18.75C18.3358 37.5 18 37.8358 18 38.25V46.5H6.75V21.75H35.25V29.25ZM36 20.25H6V18.75H36V20.25ZM40.5 46.5H36.75V21.75C37.1642 21.75 37.5 21.4142 37.5 21V18C37.5 17.5858 37.1642 17.25 36.75 17.25H5.25C4.83581 17.25 4.5 17.5858 4.5 18V21C4.5 21.4142 4.83581 21.75 5.25 21.75V46.5H1.5V11.706L21 1.59452L40.5 11.706V46.5Z" fill="#104076"/>
</svg>
