<svg width="656" height="438" viewBox="0 0 656 438" fill="none" xmlns="http://www.w3.org/2000/svg">
    <path d="M341.154 0L145.617 437.94H311.669L506.665 0.413189L341.154 0Z" fill="white" fill-opacity="0.1"/>
    <path d="M217.013 150.037H61.5234L59.8984 153.656L2.42995 282.383C-2.593 293.628 0.250875 305.544 10.2229 315.056C20.1949 324.569 35.5962 329.997 52.4378 329.997H146.692L148.317 326.378L224.067 156.758L227.059 150.037H217.013Z" fill="white" fill-opacity="0.1"/>
    <path d="M282.587 0H165.619C142.572 0 122.48 10.3396 115.611 25.7455L79.3051 107.066L76.3135 113.787H241.849L243.474 110.168L289.641 6.72071L292.633 0H282.587Z" fill="white" fill-opacity="0.1"/>
    <path d="M438.756 287.903H594.246L595.871 284.284L653.34 155.557C658.363 144.313 655.519 132.396 645.547 122.884C635.575 113.372 620.173 107.943 603.332 107.943H509.078L507.453 111.562L431.702 281.183L428.71 287.903H438.756Z" fill="white" fill-opacity="0.1"/>
    <path d="M373.184 437.94H490.152C513.198 437.94 533.29 427.601 540.16 412.195L576.465 330.874L579.457 324.154H413.921L412.296 327.772L366.129 431.22L363.138 437.94H373.184Z" fill="white" fill-opacity="0.1"/>
</svg>
