<svg width="103" height="111" viewBox="0 0 103 111" fill="none" xmlns="http://www.w3.org/2000/svg">
    <mask id="mask0_117_282" style="mask-type:luminance" maskUnits="userSpaceOnUse" x="0" y="0" width="103" height="111">
        <path d="M102.667 0H0V110.221H102.667V0Z" fill="white"/>
    </mask>
    <g mask="url(#mask0_117_282)">
        <mask id="mask1_117_282" style="mask-type:luminance" maskUnits="userSpaceOnUse" x="1" y="21" width="101" height="102">
            <path d="M100.991 22.4785V121.785H1.68457V22.4785H100.991Z" fill="white" stroke="#DD4343"/>
        </mask>
        <g mask="url(#mask1_117_282)">
            <path d="M83.2676 66.4062C84.0192 66.4062 84.7265 67.1125 84.7266 68.1094C84.7266 69.1064 84.0192 69.8135 83.2676 69.8135C82.516 69.8134 81.8086 69.1064 81.8086 68.1094C81.8087 67.1125 82.516 66.4063 83.2676 66.4062Z" fill="#49AAD1" stroke="#49AAD1"/>
            <path d="M75.4326 66.4062C76.1843 66.4062 76.8915 67.1125 76.8916 68.1094C76.8916 69.1064 76.1843 69.8135 75.4326 69.8135C74.681 69.8134 73.9736 69.1064 73.9736 68.1094C73.9737 67.1125 74.681 66.4063 75.4326 66.4062Z" fill="#49AAD1" stroke="#49AAD1"/>
            <path d="M67.5967 66.4062C68.3483 66.4062 69.0556 67.1125 69.0557 68.1094C69.0557 69.1064 68.3483 69.8135 67.5967 69.8135C66.8451 69.8134 66.1377 69.1063 66.1377 68.1094C66.1378 67.1126 66.8451 66.4064 67.5967 66.4062Z" fill="#49AAD1" stroke="#49AAD1"/>
            <path d="M15.4834 62C16.235 62 16.9423 62.7063 16.9424 63.7031C16.9424 64.7001 16.2351 65.4072 15.4834 65.4072C14.7318 65.4072 14.0244 64.7001 14.0244 63.7031C14.0245 62.7063 14.7318 62 15.4834 62Z" fill="#49AAD1" stroke="#49AAD1"/>
            <path d="M15.4847 32.855H11.5664V50.4822" stroke="#49AAD1" stroke-width="3" stroke-miterlimit="10" stroke-linecap="round" stroke-linejoin="round"/>
            <path d="M47.4172 32.8555H43.499" stroke="#49AAD1" stroke-width="3" stroke-miterlimit="10" stroke-linecap="round" stroke-linejoin="round"/>
            <path d="M15.4834 32.8542H43.4986V19.6338H15.4834V32.8542Z" stroke="#49AAD1" stroke-width="3" stroke-miterlimit="10" stroke-linecap="round" stroke-linejoin="round"/>
            <path d="M67.5968 59.2949V32.854H47.418V59.2949" stroke="#49AAD1" stroke-width="3" stroke-miterlimit="10" stroke-linecap="round" stroke-linejoin="round"/>
            <path d="M91.1055 59.2954H99.5295C99.5295 66.7055 96.2305 73.4039 91.8636 78.205" stroke="#49AAD1" stroke-width="3" stroke-miterlimit="10" stroke-linecap="round" stroke-linejoin="round"/>
            <path d="M14.0137 76.5928C7.69558 70.1435 3.14062 60.834 3.14062 50.4824H11.5647H35.6617L39.58 59.2961H47.4164H67.5952H75.4317" stroke="#49AAD1" stroke-width="3" stroke-miterlimit="10" stroke-linecap="round" stroke-linejoin="round"/>
            <path d="M75.4316 59.2964H91.1044V37.2623V32.8555C91.1044 30.4207 89.351 28.4487 87.1863 28.4487H83.268H79.3498C77.185 28.4487 75.4316 30.4207 75.4316 32.8555V37.2623V59.2964Z" stroke="#49AAD1" stroke-width="3" stroke-miterlimit="10" stroke-linecap="round" stroke-linejoin="round"/>
            <path d="M91.1044 37.2617H75.4316" stroke="#49AAD1" stroke-width="3" stroke-miterlimit="10" stroke-linecap="round" stroke-linejoin="round"/>
            <path d="M83.2695 28.448V15.2275" stroke="#49AAD1" stroke-width="3" stroke-miterlimit="10" stroke-linecap="round" stroke-linejoin="round"/>
            <path d="M83.2695 46.0757V50.4825" stroke="#49AAD1" stroke-width="3" stroke-miterlimit="10" stroke-linecap="round" stroke-linejoin="round"/>
            <path d="M31.7455 63.7026H23.3213" stroke="#49AAD1" stroke-width="3" stroke-miterlimit="10" stroke-linecap="round" stroke-linejoin="round"/>
            <path d="M99.5285 81.9308C97.448 81.9616 94.7739 81.047 92.9656 79.1938C92.6071 78.8259 92.2388 78.4954 91.8626 78.2048C88.4852 75.5806 84.4122 75.9111 81.2109 79.1938C77.6513 82.8449 73.0161 82.8449 69.4563 79.1938C65.8967 75.543 61.2614 75.543 57.7017 79.1938C54.142 82.8449 48.9191 82.8449 45.3593 79.1938C41.7997 75.543 37.1644 75.543 33.6047 79.1938C30.045 82.8449 24.8221 82.8449 21.2623 79.1938C19.0838 76.9596 16.5037 76.0939 14.0137 76.5919C12.4327 76.9092 10.8888 77.7752 9.50768 79.1938C7.75624 80.9897 5.15654 81.9019 3.14062 81.9308" stroke="#49AAD1" stroke-width="3" stroke-miterlimit="10" stroke-linecap="round" stroke-linejoin="round"/>
            <path d="M99.5285 95.1518C97.448 95.1826 94.7739 94.268 92.9656 92.4149C89.4059 88.7641 84.7707 88.7641 81.2109 92.4149C77.6513 96.066 73.0161 96.066 69.4563 92.4149C65.8967 88.7641 61.2614 88.7641 57.7017 92.4149C54.142 96.066 48.9191 96.066 45.3593 92.4149C41.7997 88.7641 37.1644 88.7641 33.6047 92.4149C30.045 96.066 24.8221 96.066 21.2623 92.4149C17.7027 88.7641 13.0674 88.7641 9.50768 92.4149C7.75624 94.2107 5.15654 95.123 3.14062 95.1518" stroke="#49AAD1" stroke-width="3" stroke-miterlimit="10" stroke-linecap="round" stroke-linejoin="round"/>
        </g>
    </g>
</svg>
