<svg width="30" height="30" viewBox="0 0 30 30" fill="none" xmlns="http://www.w3.org/2000/svg">
    <g clip-path="url(#clip0_1_9687)">
        <path d="M15.0006 0.599976C7.04759 0.599976 0.600586 7.04698 0.600586 15C0.600586 22.953 7.04759 29.4 15.0006 29.4C22.9536 29.4 29.4006 22.953 29.4006 15C29.4006 7.04698 22.9536 0.599976 15.0006 0.599976ZM20.5386 16.8465C20.5386 16.8465 21.8121 18.1035 22.1256 18.687C22.1346 18.699 22.1391 18.711 22.1421 18.717C22.2696 18.9315 22.2996 19.098 22.2366 19.2225C22.1316 19.4295 21.7716 19.5315 21.6486 19.5405H19.3986C19.2426 19.5405 18.9156 19.5 18.5196 19.227C18.2151 19.014 17.9151 18.6645 17.6226 18.324C17.1861 17.817 16.8081 17.379 16.4271 17.379C16.3787 17.3789 16.3306 17.3865 16.2846 17.4015C15.9966 17.4945 15.6276 17.9055 15.6276 19.0005C15.6276 19.3425 15.3576 19.539 15.1671 19.539H14.1366C13.7856 19.539 11.9571 19.416 10.3371 17.7075C8.35408 15.615 6.56909 11.418 6.55409 11.379C6.44159 11.1075 6.67409 10.962 6.92759 10.962H9.20008C9.50309 10.962 9.60209 11.1465 9.67109 11.31C9.75208 11.5005 10.0491 12.258 10.5366 13.11C11.3271 14.499 11.8116 15.063 12.2001 15.063C12.2729 15.0621 12.3445 15.0436 12.4086 15.009C12.9156 14.727 12.8211 12.9195 12.7986 12.5445C12.7986 12.474 12.7971 11.736 12.5376 11.382C12.3516 11.1255 12.0351 11.028 11.8431 10.992C11.9208 10.8847 12.0232 10.7978 12.1416 10.7385C12.4896 10.5645 13.1166 10.539 13.7391 10.539H14.0856C14.7606 10.548 14.9346 10.5915 15.1791 10.653C15.6741 10.7715 15.6846 11.091 15.6411 12.1845C15.6276 12.495 15.6141 12.846 15.6141 13.26C15.6141 13.35 15.6096 13.446 15.6096 13.548C15.5946 14.1045 15.5766 14.736 15.9696 14.9955C16.0208 15.0276 16.0801 15.0448 16.1406 15.045C16.2771 15.045 16.6881 15.045 17.8011 13.1355C18.1443 12.5209 18.4426 11.8822 18.6936 11.2245C18.7161 11.1855 18.7821 11.0655 18.8601 11.019C18.9176 10.9896 18.9815 10.9747 19.0461 10.9755H21.7176C22.0086 10.9755 22.2081 11.019 22.2456 11.1315C22.3116 11.31 22.2336 11.8545 21.0141 13.506L20.4696 14.2245C19.3641 15.6735 19.3641 15.747 20.5386 16.8465Z" fill="#104076"/>
    </g>
    <defs>
        <clipPath id="clip0_1_9687">
            <rect width="30" height="30" fill="white"/>
        </clipPath>
    </defs>
</svg>
