<svg width="287" height="55" viewBox="0 0 287 55" fill="none" xmlns="http://www.w3.org/2000/svg">
    <path d="M254.922 1.63574C258.924 1.70564 262.926 1.73269 266.93 1.7167L266.9 52.5227C263.88 52.106 260.638 52.2744 257.585 52.2251C257.121 52.2217 256.592 52.0856 256.13 52.0125C254.389 49.0599 255.888 33.2272 256.068 29.4072C253.325 37.3108 249.803 44.8113 246.936 52.635L235.329 52.5924C233.456 46.7451 228.784 35.8022 225.816 30.244C227.03 37.7037 226.814 45.029 226.732 52.5482C222.877 52.2047 218.927 52.3237 215.057 52.2761L215.104 1.73609C219.285 1.71244 223.47 1.61873 227.638 1.99681C230.111 12.6407 239.544 28.203 240.841 37.9792C242.093 33.7782 244.067 29.7354 245.687 25.6671C248.856 17.7091 252.023 9.69837 254.922 1.63574Z" fill="#104076" fill-opacity="0.34"/>
    <path d="M21.0654 1.42773C26.4251 1.47027 31.7001 2.35176 35.5977 6.48828C38.3699 9.4306 39.8497 13.6459 39.7383 17.709C39.6332 21.5321 37.7953 24.2262 35.1846 26.7705C37.6701 29.0206 39.3852 31.7406 39.9805 35.0996C40.7048 39.1881 39.5127 43.0503 37.208 46.377C36.8709 46.7834 36.5132 47.1647 36.1396 47.5371C34.1225 49.5474 32.065 50.9572 29.3418 51.8145C22.7652 53.8843 7.62912 52.6842 0.0947266 52.6094C0.364717 35.6151 0.127884 18.559 0 1.5625C7.02124 1.45892 14.0434 1.41396 21.0654 1.42773ZM27.1514 34.2246C24.5953 32.4388 21.5865 32.6913 18.625 32.8223L11.5684 33.0186L11.5996 40.7021C15.4068 40.7685 19.2221 40.8858 23.0293 40.7939C24.9687 40.765 27.0878 40.6123 28.4648 39.0137C28.9677 38.4286 29.185 37.6951 29.0811 36.9434C28.9181 35.7684 28.0812 34.8759 27.1514 34.2246ZM24.8281 13.6133C20.7859 12.6217 15.7921 13.6025 11.6055 13.4443L11.5508 21.4453C15.6535 21.544 23.7564 22.6679 27.3018 20.4111C27.8616 18.8533 28.5863 17.1184 27.7354 15.5215C27.1404 14.4059 25.983 13.8973 24.8281 13.6133Z" fill="#104076" fill-opacity="0.34"/>
    <path d="M65.7461 0.0546875C70.6069 0.0699947 75.5928 1.22421 79.5059 4.27051C83.3392 7.25557 85.4818 11.3543 86.0752 16.1777C86.768 21.8125 86.9077 35.0655 85.624 40.6016C85.0945 42.9502 84.055 45.1493 82.5811 47.0371C78.6128 52.1021 72.8418 53.5781 66.8232 54.2295C61.6875 53.9522 56.7552 53.0216 52.6533 49.6406C48.7431 46.4177 46.7865 41.928 46.2451 36.9023C45.3698 28.7759 44.7998 13.9578 50.0918 7.31445C54.1177 2.26027 59.6255 0.689428 65.7461 0.0546875ZM68.3496 11.5283C66.8664 11.1337 65.0718 11.2607 63.5566 11.4648C60.9772 12.7846 59.4907 13.8717 58.5488 16.79C56.624 22.7564 56.1643 33.8649 58.1787 37.6748C60.193 41.4844 61.4053 42.1168 64.4053 42.7324C65.86 43.0318 67.4298 42.8231 68.8965 42.6836C71.8742 41.0424 73.3148 39.5369 74.292 36.1338C75.7062 31.2067 75.8825 20.024 73.3809 15.5967C72.2974 13.6782 70.4759 12.093 68.3496 11.5283Z" fill="#104076" fill-opacity="0.34"/>
    <path d="M186.34 0.0546875C191.06 -0.3251 196.737 1.28037 200.5 4.18652C204.519 7.28877 206.621 11.5705 207.252 16.6201C208.211 24.2925 208.593 40.6719 203.705 46.8799C199.917 51.6948 194.303 53.4825 188.503 54.168C183.361 54.2887 177.939 53.08 173.863 49.75C170.027 46.6154 167.89 42.1279 167.368 37.2041C167.02 33.9132 167.161 30.4895 167.168 27.1816C167.185 20.1608 166.634 13.0174 171.269 7.2041C175.164 2.32159 180.426 0.688273 186.34 0.0546875ZM190.374 11.8115C188.655 11.1788 186.735 11.2622 184.942 11.4102C182.283 12.6857 180.887 13.7232 179.857 16.5957C178.07 21.5858 177.852 33.3566 180.102 38.1445C181.032 40.126 182.666 41.8371 184.743 42.543C186.512 43.1433 188.22 42.9086 190.018 42.5889C192.411 41.5378 193.857 40.5072 194.84 37.9697C196.817 32.859 197.155 21.4249 195.011 16.4414C194.124 14.3801 192.481 12.5871 190.374 11.8115Z" fill="#104076" fill-opacity="0.34"/>
    <path fill-rule="evenodd" clip-rule="evenodd" d="M94.1699 1.71375C102.074 1.72753 114.065 0.734259 121.489 2.19422C125.609 2.98292 129.245 5.41589 131.583 8.95008C133.91 12.4826 135.04 17.3522 134.189 21.5565C133.247 26.2048 130.434 29.6996 126.603 32.2372C129.743 38.9026 132.636 45.6861 135.277 52.5692L124.094 52.6024L123.578 52.5927C121.17 50.9223 116.651 37.836 115.525 34.4276C112.149 34.3103 108.756 34.4298 105.379 34.4774C105.7 40.4659 105.444 46.5769 105.428 52.579L94.1826 52.5565L94.1699 1.71375ZM120.624 14.2987C116.412 12.2612 110.157 13.7461 105.553 13.3583C105.625 16.5608 105.586 19.7226 105.43 22.9218C109.631 23.0102 118.104 24.1969 121.696 21.8192C122.507 20.1645 123.348 18.3788 122.712 16.5048C122.36 15.4657 121.583 14.763 120.624 14.2987Z" fill="#104076" fill-opacity="0.34"/>
    <path d="M148.201 1.87793C151.92 1.98355 155.683 1.86567 159.406 1.85547C159.603 9.99718 160.587 41.103 157.877 46.8007C156.359 49.9931 153.522 51.6769 150.355 52.7994C146.719 53.3522 143.28 53.2859 139.621 53.0103C139.483 49.4982 139.619 45.9537 139.661 42.4399C142.257 42.4773 145.345 42.9603 147.444 41.1149C149.103 37.0194 148.152 9.07876 148.201 1.87793Z" fill="#104076" fill-opacity="0.34"/>
    <path d="M278.785 1.79102L286.063 1.86959C285.952 12.5144 285.939 23.1579 286.021 33.8032C286.041 39.62 286.74 46.3925 285.617 52.0511C284.675 52.6906 282.941 52.4559 281.819 52.4457L274.61 52.2824C274.75 41.1337 274.585 29.9645 274.56 18.8141C274.55 13.5059 274.012 7.58545 274.873 2.36605C275.89 1.65137 277.566 1.82027 278.785 1.79102Z" fill="#104076" fill-opacity="0.34"/>
</svg>
