<svg width="276" height="51" viewBox="0 0 276 51" fill="none" xmlns="http://www.w3.org/2000/svg">
    <g clip-path="url(#clip0_1_10270)">
        <path fill-rule="evenodd" clip-rule="evenodd" d="M223.104 4.14584H213.65C213.65 6.74476 213.761 9.37671 213.876 11.9756C213.986 14.5745 214.096 17.3441 214.113 20.0146V35.3163C214.741 35.3163 215.396 35.3163 216.024 35.2337C216.651 35.1511 217.417 35.1346 218.088 35.1346C218.76 35.1346 219.481 35.1346 220.247 35.2337C221.012 35.3328 221.557 35.3163 222.212 35.3163C222.328 35.1896 222.433 35.0465 222.521 34.8978C224.387 31.963 226.287 29.0007 228.264 26.121C228.781 25.3721 229.31 24.6068 229.866 23.8965C230.185 23.5055 230.648 22.8833 231.259 22.8833C232.069 22.8833 232.305 23.6487 232.305 24.2764C232.305 26.099 232.234 27.9325 232.179 29.7551C232.124 31.5776 232.052 33.3726 232.052 35.1786V35.2777C232.735 35.2777 233.445 35.2777 234.1 35.1952C234.756 35.1126 235.62 35.096 236.374 35.096C237.129 35.096 238.004 35.096 238.814 35.1952C239.623 35.2943 240.333 35.2777 241.088 35.2777C241.088 32.789 240.978 30.2726 240.878 27.7783C240.779 25.2895 240.686 22.6741 240.686 20.1303C240.686 17.5864 240.785 14.8003 240.878 12.1573C240.978 9.51436 241.06 7.0531 241.071 4.50925H240.917C240.416 4.50925 239.887 4.50925 239.386 4.41014L236.837 4.10179C236.099 4.0192 235.317 3.8375 234.59 3.69984C233.996 3.5677 233.39 3.4796 232.779 3.43555C232.636 3.62826 232.509 3.83199 232.404 4.04673C232.096 4.60286 231.722 5.1755 231.386 5.7151L229.101 9.39873C227.498 11.9866 225.808 14.547 224.112 17.0633L222.939 18.7482C222.559 15.7253 222.51 12.6694 222.802 9.6355C222.939 7.88453 223.082 6.06199 223.082 4.29451V4.14034H223.11L223.104 4.14584Z" fill="#104076" fill-opacity="0.34"/>
        <path fill-rule="evenodd" clip-rule="evenodd" d="M204.087 17.928L204.269 17.6197L204.979 16.3533C205.618 15.3071 205.998 14.1233 206.08 12.9009C206.08 11.629 205.827 10.3625 205.342 9.18973C204.913 8.094 204.203 7.13593 203.278 6.40911C201.02 4.89492 198.339 4.15158 195.624 4.29474H181.875C181.958 6.2164 182.04 8.13255 182.101 10.0542C182.211 13.4185 182.338 16.8268 182.338 20.1966C182.338 22.7404 182.2 25.3173 182.084 27.8612C181.974 30.405 181.831 32.8663 181.831 35.3606C182.85 35.3606 183.868 35.3606 184.881 35.2615C185.9 35.1623 187.029 35.1789 188.103 35.1789C189.958 35.1789 191.808 35.1789 193.68 35.2615C195.547 35.3441 197.391 35.3606 199.258 35.3606C200.293 35.3441 201.312 35.0853 202.226 34.6007C203.14 34.1162 203.933 33.4224 204.528 32.5744C205.998 30.7354 206.78 28.4448 206.746 26.0937C206.84 24.9594 206.68 23.8141 206.284 22.7459C205.888 21.6777 205.26 20.7086 204.445 19.9047C204.048 19.6349 203.773 19.2165 203.68 18.7484L204.07 17.9721L204.087 17.928ZM192.53 10.6654C194.242 10.6654 196.477 11.0839 196.477 13.2258C196.477 15.1584 194.11 15.4117 192.656 15.4117C192.331 15.4447 192.001 15.3842 191.709 15.241C191.417 15.0923 191.175 14.8611 191.01 14.5803C190.905 14.0847 190.861 13.5837 190.883 13.0771C190.856 12.5705 190.9 12.0695 191.01 11.5739C191.136 11.2876 191.351 11.0453 191.627 10.8801C191.896 10.7204 192.216 10.6434 192.53 10.6709V10.6654ZM197.171 25.1466C197.155 25.6862 196.94 26.1983 196.571 26.5892C196.202 26.9802 195.701 27.2224 195.167 27.2775C194.391 27.3766 193.609 27.4152 192.827 27.3876C192.491 27.4262 192.15 27.3766 191.836 27.2445C191.527 27.1123 191.258 26.8976 191.054 26.6223C190.894 26.0662 190.834 25.488 190.872 24.9099C190.834 24.3647 190.878 23.8141 190.999 23.28C191.181 23.0047 191.439 22.7845 191.742 22.6413C192.045 22.5037 192.381 22.4541 192.711 22.4982C194.468 22.4706 197.171 22.8175 197.171 25.1411V25.1466Z" fill="#104076" fill-opacity="0.34"/>
        <path fill-rule="evenodd" clip-rule="evenodd" d="M175.157 19.7675C175.283 15.4617 173.791 11.2659 170.972 8.00079C169.744 6.4921 168.197 5.27523 166.435 4.43829C164.679 3.60136 162.751 3.17188 160.808 3.17188C158.864 3.17188 156.937 3.60686 155.18 4.43829C153.424 5.27523 151.871 6.4921 150.643 8.00079C147.824 11.2659 146.332 15.4617 146.459 19.7675C146.337 24.0623 147.83 28.2415 150.643 31.4956C151.877 32.9933 153.429 34.2047 155.191 35.0306C156.948 35.862 158.87 36.2915 160.819 36.2915C162.768 36.2915 164.684 35.862 166.446 35.0306C168.203 34.1992 169.755 32.9933 170.994 31.4956C173.802 28.2415 175.289 24.0623 175.162 19.7675M166.198 19.7675C166.237 21.3422 165.686 22.8785 164.662 24.0788C164.188 24.6515 163.594 25.114 162.917 25.4278C162.239 25.7417 161.501 25.8959 160.758 25.8903C160.009 25.8903 159.271 25.7197 158.594 25.4003C157.917 25.0754 157.322 24.6074 156.854 24.0293C155.819 22.8344 155.263 21.2982 155.291 19.7179C155.252 18.1266 155.797 16.5739 156.827 15.3515C157.295 14.7679 157.895 14.2943 158.572 13.9695C159.249 13.6446 159.993 13.4739 160.747 13.4739C161.501 13.4739 162.239 13.6446 162.922 13.9695C163.599 14.2943 164.194 14.7679 164.668 15.3515C165.703 16.5904 166.253 18.1652 166.204 19.773L166.198 19.7675Z" fill="#104076" fill-opacity="0.34"/>
        <path fill-rule="evenodd" clip-rule="evenodd" d="M120.773 3.82711C120.608 5.33029 120.465 6.84449 120.437 8.36419C120.338 9.25619 120.145 10.2308 120.002 11.1448C119.903 11.6734 119.821 12.202 119.749 12.7471C121.351 12.5929 122.97 12.4278 124.589 12.3011H125.382V13.1105C125.382 14.8229 125.453 16.5464 125.453 18.2698C125.453 21.133 125.354 24.0127 125.244 26.8815C125.134 29.7447 125.035 32.5143 125.018 35.3224C125.811 35.3224 126.621 35.3224 127.419 35.2398C128.212 35.1572 129.121 35.1407 129.968 35.1407C130.816 35.1407 131.769 35.1407 132.661 35.2508C133.553 35.361 134.28 35.3499 135.089 35.3499C135.089 32.5693 134.979 29.6896 134.869 26.8815C134.759 24.0733 134.66 21.1385 134.66 18.2698C134.66 16.5023 134.66 14.7348 134.742 12.9729V12.18H135.535C136.928 12.2626 138.184 12.3341 139.494 12.4278H140.276C140.276 11.789 140.177 11.1228 140.111 10.4951C140.006 9.68568 139.94 8.87627 139.918 8.06136C139.918 7.19689 139.918 6.33792 140.028 5.48997C140.138 4.64202 140.111 4.09691 140.127 3.43066H139.544L137.76 3.79407C136.367 3.94824 134.974 4.0859 133.575 4.19602C132.694 4.19602 131.791 4.33368 130.899 4.33368C127.518 4.37222 124.137 4.20703 120.779 3.83261" fill="#104076" fill-opacity="0.34"/>
        <path fill-rule="evenodd" clip-rule="evenodd" d="M112.167 15.6765L110.774 15.8307C109.65 15.9573 108.516 16.0234 107.387 16.0234C106.457 16.0619 105.526 16.0344 104.601 15.9408C103.373 15.7756 102.052 15.2305 102.052 13.7989C102.052 12.3673 103.307 12.1691 104.337 12.0589H106.484C107.635 12.0754 108.786 12.1635 109.926 12.3232C110.889 12.4499 111.864 12.5325 112.838 12.56V11.6294C112.838 10.6824 112.684 9.73533 112.602 8.84883C112.519 7.95683 112.447 6.97123 112.348 6.06821C112.332 5.67728 112.282 5.28634 112.211 4.90091C112.128 4.50997 112.001 4.34478 111.583 4.34478C109.953 4.34478 108.323 4.34478 106.688 4.42738C105.058 4.50997 103.412 4.52649 101.782 4.52649C100.152 4.52649 98.5498 4.52649 96.942 4.42738C95.3397 4.32826 93.9301 4.34478 92.438 4.34478C92.5206 6.21137 92.6031 8.06145 92.6637 9.90602C92.7628 13.1877 92.8895 16.5134 92.8895 19.8116C92.8895 22.4271 92.7628 25.07 92.6362 27.6854C92.5095 30.3009 92.3994 32.8337 92.3994 35.3941C93.9907 35.3941 95.5765 35.3941 97.1512 35.295C98.726 35.1959 100.427 35.2124 102.057 35.2124C105.289 35.1518 108.527 35.339 111.732 35.7685C111.875 35.7795 112.018 35.7795 112.167 35.7685C112.403 34.2543 112.657 32.7071 112.822 31.1929C112.948 30.4275 113.086 29.6622 113.224 28.9133C113.356 28.2801 113.438 27.6414 113.477 26.9917C112.838 26.9917 112.183 27.0743 111.555 27.1458C110.928 27.2174 109.981 27.3 109.215 27.3C107.822 27.3 106.275 27.3 104.821 27.1624C104.017 27.1624 103.225 26.9476 102.536 26.5347C102.371 26.3474 102.244 26.1217 102.167 25.8849C102.09 25.6482 102.063 25.3949 102.09 25.1416C102.09 23.6549 103.483 23.2199 104.7 23.2199C106.424 23.2034 108.147 23.308 109.859 23.5283L111.253 23.721H111.445C111.445 22.3279 111.583 20.9404 111.71 19.5473C111.759 18.837 111.847 18.1322 111.974 17.433C112.056 16.8768 112.156 16.2656 112.167 15.682" fill="#104076" fill-opacity="0.34"/>
        <path fill-rule="evenodd" clip-rule="evenodd" d="M60.6396 34.7048C61.6583 34.7048 62.6769 34.7048 63.6956 34.6057C64.7142 34.5065 65.843 34.5231 66.9167 34.5231C68.7723 34.5231 70.6278 34.5231 72.4944 34.6057C74.361 34.6882 76.1891 34.7048 78.0722 34.7048C79.1073 34.6882 80.126 34.4295 81.04 33.9449C81.954 33.4604 82.7414 32.7666 83.3416 31.9186C84.8117 30.0796 85.5936 27.789 85.5606 25.4379C85.6487 24.3036 85.489 23.1583 85.0926 22.0901C84.6961 21.0219 84.0684 20.0528 83.259 19.2489C82.8626 18.9791 82.5817 18.5662 82.4771 18.0926L82.8791 17.3163L83.0608 17.0079L83.7711 15.7415C84.3768 14.6788 84.7181 13.484 84.7732 12.2616C84.7732 10.9842 84.5254 9.71776 84.0354 8.53393C83.6169 7.44371 82.9176 6.48563 82.0146 5.75331C79.7846 4.23361 77.1141 3.49028 74.4161 3.62242H60.6672C60.7498 5.54408 60.8214 7.46023 60.8929 9.38188C61.0746 12.7627 61.0746 16.1435 61.0746 19.5353C61.0746 22.0791 60.948 24.656 60.8214 27.1999C60.6947 29.7437 60.6396 32.205 60.6396 34.6993M71.2776 10.0206C72.99 10.0206 75.2255 10.4391 75.2255 12.581C75.2255 14.7229 72.8413 14.7504 71.4042 14.7504C71.0738 14.7889 70.7435 14.7284 70.4516 14.5797C70.1598 14.431 69.912 14.1998 69.7469 13.919V13.8474C69.6367 13.3573 69.5927 12.8508 69.6202 12.3442C69.5927 11.8431 69.6312 11.3366 69.7303 10.841C69.8735 10.5602 70.0993 10.3344 70.3746 10.1858C70.6499 10.0371 70.9637 9.98205 71.2776 10.0206ZM71.4428 21.8313C73.2157 21.8313 75.9193 22.1782 75.9193 24.4908C75.9083 25.0359 75.699 25.5535 75.3301 25.9555C74.9612 26.3574 74.4546 26.6052 73.915 26.6602C73.1442 26.7594 72.3623 26.7979 71.5859 26.7704C71.25 26.8089 70.9087 26.7594 70.5948 26.6272C70.281 26.4951 70.0112 26.2803 69.8129 26.005C69.6533 25.4489 69.5927 24.8707 69.6312 24.2926C69.5927 23.7475 69.6367 23.1969 69.7579 22.6628C69.9286 22.3764 70.1818 22.1452 70.4792 21.9965C70.7765 21.8479 71.1124 21.7873 71.4428 21.8258V21.8313Z" fill="#104076" fill-opacity="0.34"/>
        <path fill-rule="evenodd" clip-rule="evenodd" d="M249.006 35.2886C249.772 35.2886 250.542 35.2886 251.291 35.206C252.046 35.1234 252.921 35.1068 253.73 35.1068C254.54 35.1068 255.514 35.1068 256.406 35.206C257.298 35.3051 258.053 35.2886 258.873 35.2886C258.879 35.2555 258.879 35.2225 258.873 35.1894C258.873 33.6312 258.873 32.0619 258.747 30.5037C258.62 28.9454 258.62 27.3487 258.62 25.7739C258.62 25.0085 258.758 23.8522 259.776 23.8522C259.925 23.8522 260.063 23.8963 260.189 23.9734C260.316 24.0505 260.415 24.1551 260.487 24.2872V24.4524C260.85 25.4545 261.197 26.4567 261.533 27.4588C262.05 28.6811 262.634 29.8925 263.207 31.1039C263.818 32.3538 264.352 33.6312 264.809 34.9417C264.836 35.0628 264.88 35.1784 264.936 35.2886C265.965 35.2886 267.028 35.2886 268.074 35.206C269.12 35.1234 270.348 35.1068 271.477 35.1068C272.06 35.1068 272.65 35.1068 273.233 35.206C273.817 35.3051 274.252 35.2886 274.77 35.2886L274.935 35.0958C275.017 34.9967 275.083 34.8921 275.144 34.7765L272.986 30.9497C272.694 30.4376 272.358 29.865 272.094 29.3364C271.273 27.3211 270.447 25.2728 269.726 23.2135L268.889 20.7908C268.74 20.4274 268.636 20.0475 268.57 19.662C268.57 18.9683 269.407 18.0322 269.836 17.5477C270.734 16.5676 271.471 15.4553 272.027 14.2495C272.462 13.1923 272.798 12.1021 273.019 10.9788L273.602 7.37776C273.701 6.71152 273.911 6.0728 274.213 5.47263C274.401 5.06517 274.621 4.67423 274.869 4.30532C273.448 4.13463 272.016 4.05754 270.59 4.08507C269.043 4.03001 267.49 4.16767 265.976 4.48702C265.046 6.17742 264.462 8.03851 264.247 9.95465C263.966 12.2342 263.19 16.0335 260.206 16.0335C259.892 16.0665 259.572 16.0059 259.286 15.8628C259.005 15.7196 258.769 15.4939 258.614 15.213C258.471 14.734 258.416 14.2385 258.449 13.7374C258.449 12.1076 258.449 10.4557 258.559 8.81488C258.669 7.17404 258.658 5.76996 258.658 4.25026C257.959 4.25026 257.265 4.25026 256.539 4.34937C255.812 4.44848 254.766 4.44848 253.874 4.44848C252.982 4.44848 252.117 4.44848 251.242 4.34937C250.361 4.25026 249.738 4.34937 248.968 4.26678C248.968 6.86569 249.067 9.49764 249.16 12.0966C249.259 14.6955 249.353 17.5201 249.353 20.2347C249.353 22.9492 249.254 25.3389 249.144 27.8828C249.034 30.4266 248.951 32.8879 248.935 35.3822L249.006 35.283V35.2886Z" fill="#104076" fill-opacity="0.34"/>
        <path d="M275.777 43.3009H273.822V47.7389H272.858V43.3009H270.92V42.464H275.771V43.3009H275.777ZM264.527 42.464H265.491V44.705H268.503V42.464H269.466V47.7334H268.503V45.5199H265.491V47.7334H264.527V42.464ZM259.913 43.2128C259.489 43.2018 259.076 43.3505 258.757 43.6313C258.449 43.9176 258.256 44.3085 258.212 44.7325H261.615C261.576 44.314 261.378 43.9286 261.07 43.6478C260.915 43.5046 260.728 43.389 260.53 43.3174C260.326 43.2458 260.117 43.2073 259.902 43.2183H259.919L259.913 43.2128ZM262.534 45.1345C262.534 45.2281 262.534 45.3217 262.534 45.4153H258.239C258.289 45.8558 258.509 46.2632 258.851 46.544C259.225 46.8304 259.688 46.979 260.161 46.9625C260.447 46.9735 260.728 46.924 260.992 46.8193C261.257 46.7092 261.488 46.5495 261.681 46.3403L262.209 46.9515C261.967 47.2323 261.659 47.4526 261.317 47.5902C260.888 47.7554 260.425 47.8325 259.968 47.8105C259.506 47.7884 259.054 47.6728 258.641 47.4691C258.223 47.2488 257.876 46.9129 257.639 46.511C257.402 46.087 257.281 45.608 257.292 45.1179C257.287 44.6334 257.402 44.1544 257.628 43.7249C257.848 43.3229 258.173 42.987 258.575 42.7668C258.999 42.53 259.484 42.4089 259.968 42.4199C260.458 42.4089 260.937 42.53 261.361 42.7668C261.758 42.9926 262.083 43.3229 262.297 43.7249C262.523 44.1544 262.633 44.6334 262.633 45.1179L262.534 45.1455V45.1345ZM255.365 42.464V47.7334H254.501V43.879L252.518 47.1332H252.072L250.123 43.879V47.7334H249.286V42.464H250.277L252.353 46.0265L254.484 42.464H255.365ZM244.628 46.957C244.942 46.9625 245.256 46.8854 245.537 46.7367C245.812 46.5826 246.032 46.3513 246.175 46.0705C246.324 45.7677 246.401 45.4373 246.401 45.1014C246.401 44.7655 246.324 44.4352 246.175 44.1323C246.032 43.857 245.812 43.6258 245.537 43.4771C245.261 43.3174 244.947 43.2403 244.628 43.2403C244.303 43.2403 243.989 43.3174 243.709 43.4771C243.439 43.6313 243.219 43.857 243.07 44.1323C242.921 44.4352 242.844 44.7655 242.844 45.1014C242.844 45.4373 242.921 45.7677 243.07 46.0705C243.219 46.3513 243.444 46.5826 243.72 46.7423C243.995 46.9019 244.314 46.9735 244.628 46.9625V46.957ZM244.628 47.8049C244.144 47.8049 243.665 47.6838 243.235 47.4581C242.828 47.2323 242.486 46.8909 242.26 46.4835C242.018 46.0595 241.886 45.5805 241.886 45.0904C241.886 44.6004 242.013 44.1213 242.26 43.6973C242.486 43.2899 242.822 42.954 243.235 42.7393C243.665 42.519 244.144 42.4034 244.628 42.4034C245.113 42.4034 245.592 42.519 246.021 42.7393C246.434 42.9595 246.77 43.2899 246.996 43.6973C247.238 44.1213 247.37 44.6004 247.37 45.0904C247.37 45.5805 247.244 46.0595 246.996 46.4835C246.77 46.8909 246.429 47.2268 246.021 47.4581C245.586 47.6893 245.102 47.8049 244.612 47.8049H244.628ZM239.986 42.464V47.7334H239.122V43.879L237.14 47.1332H236.738L234.772 43.879V47.7334H233.891V42.464H234.882L236.958 46.0265L239.089 42.464H239.981H239.986ZM226.744 41.7702C226.331 41.7977 225.929 41.6711 225.599 41.4233C225.461 41.2911 225.357 41.1315 225.285 40.9608C225.213 40.7846 225.18 40.5974 225.18 40.4102H225.836C225.836 40.5203 225.852 40.6304 225.896 40.7295C225.94 40.8286 226.006 40.9222 226.089 40.9938C226.271 41.1535 226.507 41.2306 226.744 41.2141C226.981 41.2251 227.218 41.148 227.399 40.9938C227.482 40.9222 227.548 40.8286 227.592 40.7295C227.636 40.6304 227.664 40.5203 227.664 40.4102H228.374C228.379 40.6029 228.346 40.7901 228.269 40.9663C228.192 41.1425 228.082 41.2966 227.939 41.4288C227.609 41.6766 227.196 41.8032 226.783 41.7757H226.739L226.744 41.7702ZM224.277 42.464H225.241V46.3018L228.473 42.464H229.354V47.7334H228.379V43.9616L225.147 47.7994H224.266L224.283 42.4585L224.277 42.464ZM217.863 47.0286C218.215 47.0561 218.562 46.9625 218.854 46.7643C218.969 46.6652 219.057 46.544 219.113 46.4064C219.168 46.2687 219.195 46.1201 219.184 45.9714C219.195 45.8282 219.173 45.6796 219.113 45.5474C219.052 45.4153 218.964 45.2941 218.848 45.206C218.551 45.0298 218.204 44.9472 217.857 44.9693H216.657V47.0396L217.857 47.0231L217.863 47.0286ZM220.946 42.464H221.893V47.7334H220.946V42.464ZM218.16 44.259C218.705 44.2204 219.245 44.3856 219.68 44.716C219.861 44.8702 219.999 45.0684 220.093 45.2886C220.186 45.5089 220.225 45.7456 220.208 45.9824C220.219 46.2302 220.175 46.478 220.076 46.7037C219.977 46.9295 219.823 47.1332 219.636 47.2874C219.157 47.6287 218.578 47.7939 217.989 47.7444H215.77V42.4585H216.717V44.2369L218.154 44.248L218.16 44.259ZM208.403 42.464H209.367V44.705H212.378V42.464H213.342V47.7334H212.378V45.5199H209.367V47.7334H208.403V42.464ZM204.218 45.5089H203.189V47.7334H202.242V45.5089H201.212L199.819 47.7334H198.69L200.502 44.9527L198.828 42.4089H199.846L201.239 44.6334H202.286V42.4089H203.233V44.6334H204.279L205.672 42.4089H206.702L205.028 44.9693L206.839 47.7499H205.694L204.218 45.5089ZM198.222 42.464L195.656 48.262C195.491 48.7025 195.221 49.0934 194.863 49.4017C194.538 49.6275 194.153 49.7376 193.762 49.7211C193.509 49.7211 193.256 49.6826 193.008 49.611C192.782 49.5394 192.573 49.4072 192.408 49.2366L192.81 48.5263C193.063 48.774 193.404 48.9117 193.757 48.9172C193.966 48.9172 194.17 48.8566 194.34 48.7355C194.533 48.5593 194.682 48.339 194.775 48.0968L194.94 47.7334L192.6 42.464H193.602L195.441 46.6376L197.27 42.464H198.217H198.222ZM186.191 42.464H187.155V44.705H190.167V42.464H191.13V47.7334H190.167V45.5199H187.155V47.7334H186.191V42.464ZM179.848 47.001C180.162 47.0231 180.476 46.957 180.757 46.8193C180.856 46.7533 180.933 46.6652 180.982 46.5606C181.032 46.4559 181.054 46.3403 181.048 46.2192C181.059 46.1035 181.037 45.9934 180.993 45.8888C180.949 45.7842 180.878 45.6906 180.784 45.6245C180.525 45.4648 180.222 45.3877 179.92 45.4153H178.317V47.001H179.854H179.848ZM178.312 44.7325H179.705C179.997 44.749 180.288 44.6774 180.542 44.5398C180.635 44.4737 180.707 44.3856 180.757 44.2865C180.806 44.1819 180.828 44.0718 180.823 43.9561C180.823 43.4551 180.459 43.2073 179.705 43.2073H178.312V44.738V44.7325ZM180.977 44.9968C181.28 45.0464 181.549 45.206 181.742 45.4483C181.935 45.6851 182.028 45.9879 182.012 46.2907C182.017 46.5 181.973 46.7092 181.885 46.8909C181.792 47.0781 181.654 47.2378 181.483 47.3589C181.015 47.6398 180.47 47.7719 179.92 47.7334H177.381V42.464H179.837C180.327 42.4474 180.812 42.5686 181.23 42.8108C181.362 42.9045 181.478 43.0201 181.566 43.1577C181.654 43.2954 181.715 43.4496 181.742 43.6092C181.77 43.7689 181.77 43.9341 181.731 44.0938C181.698 44.2535 181.632 44.4021 181.538 44.5343C181.395 44.7325 181.203 44.8922 180.982 44.9913L180.977 44.9968ZM167.789 42.519H168.753V46.3568L172.002 42.519H172.866V47.7884H171.903V43.9616L168.67 47.7994H167.789V42.5135V42.519ZM160.356 42.519H161.32V46.3568L164.552 42.519H165.433V47.7884H164.469V43.9616L161.237 47.7994H160.356V42.5135V42.519ZM158.6 46.957V49.0548H157.691V47.7884H152.95V42.4585H153.914V46.8964H156.816V42.4585H157.763V46.8964L158.6 46.9515V46.957ZM148.309 46.957C148.628 46.9625 148.947 46.8854 149.228 46.7367C149.492 46.5771 149.713 46.3458 149.856 46.0705C150.01 45.7732 150.093 45.4428 150.093 45.1014C150.093 44.76 150.01 44.4352 149.856 44.1323C149.713 43.857 149.498 43.6313 149.228 43.4771C148.947 43.3174 148.628 43.2403 148.309 43.2403C147.989 43.2403 147.681 43.3174 147.4 43.4771C147.125 43.6258 146.899 43.8515 146.761 44.1323C146.607 44.4297 146.525 44.76 146.525 45.1014C146.525 45.4428 146.607 45.7677 146.761 46.0705C146.905 46.3513 147.13 46.5826 147.4 46.7367C147.67 46.8854 147.973 46.9625 148.281 46.957H148.309ZM148.309 47.8049C147.824 47.8049 147.345 47.6838 146.916 47.4581C146.503 47.2323 146.161 46.8909 145.924 46.4835C145.693 46.054 145.572 45.5805 145.572 45.0904C145.572 44.6004 145.693 44.1268 145.924 43.6973C146.156 43.2899 146.497 42.954 146.916 42.7393C147.345 42.519 147.824 42.4034 148.309 42.4034C148.793 42.4034 149.272 42.519 149.702 42.7393C150.109 42.965 150.451 43.2954 150.676 43.6973C150.908 44.1268 151.029 44.6004 151.029 45.0904C151.029 45.5805 150.908 46.054 150.676 46.4835C150.445 46.8909 150.109 47.2268 149.702 47.4581C149.261 47.6893 148.777 47.8105 148.281 47.8049H148.309ZM143.667 42.464V47.7334H142.775V43.879L140.793 47.1332H140.374L138.42 43.879V47.7334H137.539V42.464H138.53L140.606 46.0265L142.736 42.464H143.656H143.667ZM132.847 42.464C133.359 42.4529 133.86 42.5741 134.312 42.8108C134.736 43.0256 135.094 43.356 135.331 43.7689C135.573 44.1929 135.705 44.6719 135.705 45.162C135.705 45.652 135.578 46.1311 135.331 46.555C135.088 46.9625 134.736 47.2984 134.312 47.5131C133.86 47.7499 133.359 47.871 132.847 47.86C132.418 47.8655 131.994 47.7939 131.592 47.6508C131.229 47.5076 130.898 47.2929 130.628 47.0121L131.184 46.4559C131.399 46.6652 131.652 46.8248 131.928 46.935C132.203 47.0451 132.5 47.0947 132.798 47.0836C133.277 47.0947 133.745 46.935 134.125 46.6376C134.494 46.3513 134.73 45.9328 134.796 45.4703H132.176V44.7766H134.813C134.741 44.3361 134.499 43.9341 134.141 43.6643C133.772 43.3725 133.315 43.2238 132.842 43.2348C132.544 43.2293 132.247 43.2844 131.972 43.3945C131.697 43.5046 131.443 43.6698 131.229 43.8735L130.672 43.3339C130.937 43.0476 131.267 42.8219 131.636 42.6787C132.01 42.5245 132.412 42.4364 132.82 42.4144L132.847 42.4695V42.464ZM126.768 42.464V47.7334H125.904V43.879L123.922 47.1332H123.503L121.554 43.879V47.7334H120.673V42.464H121.664L123.729 46.0265L125.876 42.464H126.768ZM116.059 43.2128C115.635 43.1963 115.222 43.3505 114.903 43.6313C114.594 43.9176 114.402 44.3085 114.358 44.7325H117.76C117.722 44.314 117.518 43.9231 117.204 43.6478C117.05 43.4991 116.863 43.3835 116.665 43.3119C116.461 43.2403 116.246 43.2073 116.037 43.2183H116.064L116.059 43.2128ZM118.663 45.1345C118.669 45.2281 118.669 45.3217 118.663 45.4153H114.33C114.352 45.6355 114.413 45.8503 114.523 46.043C114.627 46.2357 114.771 46.4064 114.947 46.544C115.321 46.8304 115.784 46.979 116.257 46.9625C116.538 46.9735 116.824 46.924 117.083 46.8138C117.347 46.7037 117.579 46.544 117.777 46.3348L118.306 46.946C118.063 47.2268 117.755 47.4415 117.414 47.5847C117.034 47.7334 116.626 47.8105 116.213 47.8049C115.701 47.8049 115.195 47.6893 114.738 47.4581C114.319 47.2378 113.972 46.9019 113.735 46.5C113.493 46.076 113.372 45.597 113.372 45.1069C113.372 44.6224 113.488 44.1433 113.719 43.7139C113.939 43.3119 114.264 42.976 114.666 42.7558C115.09 42.519 115.574 42.3979 116.059 42.4089C116.544 42.4034 117.028 42.519 117.452 42.7558C117.843 42.9815 118.162 43.3119 118.372 43.7139C118.575 44.1599 118.669 44.6444 118.636 45.1345H118.663ZM107.844 44.3416C107.833 44.4902 107.855 44.6334 107.915 44.771C107.976 44.9087 108.064 45.0243 108.18 45.1179C108.477 45.3162 108.829 45.4098 109.182 45.3822H110.646V43.2954H109.253C108.295 43.2954 107.816 43.6423 107.816 44.3416H107.844ZM111.511 42.464V47.7334H110.646V46.065H108.973L107.816 47.7334H106.787L108.081 45.9384C107.717 45.8447 107.398 45.63 107.161 45.3382C106.908 44.9693 106.798 44.5233 106.853 44.0773C106.908 43.6368 107.122 43.2238 107.453 42.932C107.959 42.5906 108.56 42.4254 109.165 42.4585H111.505L111.511 42.464ZM104.903 42.464V47.7334H103.94V43.2954H101.638V44.4627C101.616 45.0574 101.55 45.6575 101.446 46.2412C101.374 46.6487 101.22 47.0396 100.983 47.381C100.884 47.5241 100.752 47.6343 100.592 47.7113C100.438 47.7884 100.262 47.8215 100.091 47.8105C99.8929 47.8105 99.6946 47.7774 99.5074 47.7279V46.924H99.7607C99.8819 46.924 100.003 46.8964 100.108 46.8359C100.212 46.7753 100.3 46.6872 100.361 46.5771C100.493 46.3183 100.581 46.032 100.614 45.7401C100.614 45.4208 100.697 44.9748 100.724 44.3471L100.823 42.3979L104.909 42.4529L104.903 42.464ZM96.2037 47.001C96.5121 47.0231 96.8204 46.9625 97.0957 46.8193C97.1948 46.7533 97.2719 46.6652 97.3215 46.5606C97.371 46.4559 97.3931 46.3403 97.3876 46.2192C97.3986 46.1035 97.3765 45.9934 97.3325 45.8888C97.2885 45.7842 97.2169 45.6906 97.1233 45.6245C96.8645 45.4648 96.5616 45.3877 96.2588 45.4153H94.629V47.001H96.2037ZM94.6565 44.7325H96.0496C96.3414 44.749 96.6332 44.6829 96.8865 44.5398C96.9801 44.4737 97.0572 44.3856 97.1067 44.2865C97.1563 44.1819 97.1838 44.0718 97.1783 43.9561C97.1783 43.4551 96.8039 43.2073 96.0496 43.2073H94.6565V44.738V44.7325ZM97.3215 44.9968C97.6243 45.0464 97.8996 45.206 98.0868 45.4428C98.2796 45.6796 98.3732 45.9824 98.3511 46.2907C98.3621 46.5 98.3181 46.7037 98.23 46.8909C98.1419 47.0781 98.0042 47.2378 97.8336 47.3589C97.3655 47.6398 96.8204 47.7719 96.2698 47.7334H93.6929V42.464H96.1487C96.6387 42.4474 97.1178 42.5686 97.5417 42.8108C97.7124 42.9155 97.8501 43.0641 97.9437 43.2403C98.0373 43.4165 98.0813 43.6147 98.0703 43.813C98.0813 44.0718 97.9987 44.325 97.8446 44.5343C97.7179 44.7325 97.5307 44.8922 97.316 44.9913L97.3215 44.9968ZM88.9576 47.0671C89.2935 47.0781 89.6183 46.99 89.9047 46.8193C90.1745 46.6597 90.3782 46.4174 90.4883 46.1256V45.3602H89.0237C88.2143 45.3602 87.8123 45.641 87.8123 46.1806C87.8068 46.3018 87.8288 46.4229 87.8839 46.533C87.939 46.6431 88.0161 46.7368 88.1207 46.8083C88.3629 46.9845 88.6548 47.0781 88.9576 47.0726V47.0671ZM89.2219 42.4089C89.8331 42.3648 90.4388 42.5631 90.9068 42.9485C91.1105 43.1577 91.2702 43.411 91.3693 43.6863C91.4684 43.9616 91.5125 44.2535 91.4905 44.5508V47.7334H90.5709V47.0396C90.4057 47.2984 90.169 47.4966 89.8882 47.6122C89.5578 47.7499 89.1999 47.816 88.842 47.8049C88.3409 47.8215 87.8509 47.6728 87.4489 47.3755C87.2782 47.2433 87.1406 47.0726 87.0525 46.8744C86.9589 46.6817 86.9148 46.4669 86.9203 46.2467C86.9093 46.032 86.9534 45.8227 87.0415 45.6245C87.1296 45.4318 87.2617 45.2556 87.4269 45.1179C87.9004 44.7986 88.4731 44.6499 89.0457 44.6995H90.5654V44.5068C90.5764 44.3306 90.5489 44.1599 90.4828 43.9947C90.4223 43.8295 90.3231 43.6863 90.202 43.5597C89.8992 43.3284 89.5247 43.2128 89.1448 43.2403C88.831 43.2403 88.5226 43.2899 88.2253 43.3945C87.95 43.4826 87.6912 43.6258 87.4709 43.813L87.069 43.0917C87.3553 42.8604 87.6912 42.6897 88.0436 42.5906C88.418 42.475 88.8089 42.4144 89.1999 42.4089H89.2274H89.2219ZM85.8466 43.3009H83.8809V47.7389H82.9173V43.3009H80.9792V42.464H85.8191L85.8466 43.3009ZM78.0664 47.8105C77.5819 47.8105 77.1028 47.6893 76.6733 47.4636C76.2549 47.2378 75.908 46.9019 75.6712 46.489C75.44 46.0595 75.3188 45.586 75.3188 45.0959C75.3188 44.6059 75.44 44.1323 75.6712 43.7028C75.908 43.2954 76.2549 42.9595 76.6733 42.7448C77.1028 42.519 77.5819 42.3979 78.0664 42.3979C78.5124 42.3924 78.9529 42.4915 79.3493 42.6897C79.7183 42.8769 80.0211 43.1688 80.2303 43.5267L79.476 43.9727C79.3218 43.7304 79.1071 43.5322 78.8483 43.4C78.595 43.2679 78.3142 43.2018 78.0279 43.2073C77.7085 43.2073 77.3891 43.2844 77.1083 43.4441C76.8275 43.5927 76.6018 43.8185 76.4531 44.0993C76.2934 44.3966 76.2108 44.7325 76.2163 45.0739C76.2163 45.4153 76.2934 45.7456 76.4531 46.0485C76.6018 46.3238 76.833 46.5495 77.1083 46.7037C77.3891 46.8579 77.7085 46.935 78.0279 46.924C78.3142 46.9295 78.595 46.8689 78.8483 46.7423C79.1016 46.6101 79.3218 46.4119 79.476 46.1696L80.2028 46.6266C79.9991 46.9845 79.6907 47.2764 79.3218 47.4636C78.9309 47.6893 78.4904 47.8105 78.0389 47.8105H78.0664ZM71.0956 46.9625C71.4149 46.968 71.7233 46.8909 72.0041 46.7423C72.2794 46.5881 72.4997 46.3568 72.6428 46.076C72.7915 45.7732 72.8631 45.4428 72.8631 45.1069C72.8631 44.771 72.786 44.4407 72.6428 44.1378C72.4997 43.8625 72.2794 43.6313 72.0041 43.4826C71.7288 43.3229 71.4149 43.2458 71.0956 43.2458C70.7762 43.2458 70.4569 43.3229 70.1761 43.4826C69.9062 43.6368 69.686 43.8625 69.5373 44.1378C69.3887 44.4407 69.3171 44.771 69.3171 45.1069C69.3171 45.4428 69.3942 45.7732 69.5373 46.076C69.686 46.3568 69.9118 46.5881 70.1871 46.7478C70.4624 46.9074 70.7817 46.979 71.0956 46.968V46.9625ZM71.0956 47.8105C70.611 47.8105 70.132 47.6893 69.7025 47.4636C69.2951 47.2378 68.9537 46.8964 68.7279 46.489C68.4857 46.065 68.3535 45.586 68.3535 45.0959C68.3535 44.6059 68.4802 44.1268 68.7279 43.7028C68.9537 43.2954 69.2896 42.9595 69.7025 42.7448C70.132 42.519 70.611 42.3979 71.0956 42.3979C71.5801 42.3979 72.0592 42.5135 72.4886 42.7448C72.9016 42.965 73.2375 43.2954 73.4632 43.7028C73.7055 44.1268 73.8377 44.6059 73.8377 45.0959C73.8377 45.586 73.711 46.065 73.4632 46.489C73.2375 46.8964 72.8961 47.2323 72.4886 47.4636C72.0592 47.6948 71.5801 47.8105 71.0956 47.8105ZM62.104 43.1082C62.082 43.9231 62.0049 44.738 61.8672 45.5419C61.8232 46.0595 61.614 46.544 61.2671 46.935H65.2535V41.6325H62.1866L62.104 43.1082ZM67.2358 46.8799V49.2696H66.2997V47.7389H60.5568V49.2696H59.6758V46.8799H60.0117C60.4577 46.8799 60.766 46.5055 60.9477 45.8392C61.1569 44.9252 61.2726 43.9947 61.2836 43.0586V40.8176H66.1896V46.924L67.2358 46.8799Z" fill="#104076" fill-opacity="0.34"/>
        <path fill-rule="evenodd" clip-rule="evenodd" d="M27.4874 3.33691C26.5404 3.33691 25.5768 3.33691 24.6297 3.44704C23.6826 3.55716 22.5924 3.62874 21.5903 3.62874C20.5882 3.62874 19.6521 3.62874 18.7051 3.51862C17.758 3.40849 16.822 3.41951 15.9189 3.41951C15.9189 6.67365 16.0456 9.95533 16.1557 13.1544C16.1557 15.0761 16.2824 16.9922 16.3099 18.9249C16.3099 20.318 16.3099 21.7055 16.3925 23.016L16.8275 35.8123C19.9054 33.4447 23.4239 31.6937 27.1736 30.664L27.0084 23.0986C27.0084 19.8004 27.135 16.4912 27.2451 13.2095C27.3553 9.9278 27.4984 6.65714 27.4984 3.47457V3.33691H27.4874Z" fill="#104076" fill-opacity="0.34"/>
        <path d="M11.6299 8.44629C13.7993 13.3908 16.1725 23.5607 17.0369 32.0347" stroke="#104076" stroke-opacity="0.34" stroke-width="0.825926" stroke-miterlimit="22.93"/>
        <path d="M7.5332 14.8555C7.5332 14.8555 15.6053 22.9385 17.0699 34.9255" stroke="#104076" stroke-opacity="0.34" stroke-width="0.825926" stroke-miterlimit="22.93"/>
        <path d="M7.57129 23.5059C7.57129 23.5059 14.1567 27.4428 17.6531 34.1383" stroke="#104076" stroke-opacity="0.34" stroke-width="0.825926" stroke-miterlimit="22.93"/>
        <path fill-rule="evenodd" clip-rule="evenodd" d="M14.0856 7.62632C14.2288 6.78387 14.0415 5.90839 13.8543 5.17607C13.6396 4.31711 12.3677 0.815182 11.74 0.506836C11.4536 0.666515 11.2554 1.32726 11.1398 1.65212C11.0407 1.93844 10.859 2.71481 10.7709 2.85247C10.402 2.57716 9.25118 1.61358 8.89878 1.542C8.62898 1.74022 8.51885 3.21587 8.48031 3.66187C8.45829 3.92617 8.48031 4.11338 8.40873 4.32261C8.05083 4.06382 7.69293 3.79953 7.33503 3.54074C6.72935 3.08923 5.98601 2.31837 6.19525 3.37555C6.22829 3.55726 6.27234 3.75548 6.31639 3.94269C6.82295 5.95795 7.46167 8.11086 9.27871 9.45987C11.2334 10.908 13.6671 10.0821 14.0801 7.62081" fill="#104076" fill-opacity="0.34"/>
        <path fill-rule="evenodd" clip-rule="evenodd" d="M9.07497 2.09766C8.80517 3.17687 8.69504 5.36832 8.91529 6.46956C9.80178 10.8635 12.9183 10.1807 13.4579 8.12692C13.6506 7.4001 13.5185 6.63474 13.1716 5.95748C12.5714 4.77916 10.3799 2.83548 9.07497 2.09766Z" fill="#104076" fill-opacity="0.34"/>
        <path fill-rule="evenodd" clip-rule="evenodd" d="M9.7134 9.29426L9.06367 8.23707C8.61217 7.33957 8.48002 6.39251 8.42496 5.41791C8.3754 4.57547 8.68375 5.04349 6.66298 3.5293C6.56938 4.03586 7.25765 5.8529 7.51093 6.46959C7.91288 7.44969 8.62318 8.56744 9.7134 9.29426Z" fill="#104076" fill-opacity="0.34"/>
        <path fill-rule="evenodd" clip-rule="evenodd" d="M11.1452 3.15534C11.883 3.8271 12.5602 4.32816 13.1439 5.18712C13.3091 5.42939 13.4192 5.71571 13.6009 5.91394C13.6284 5.51749 13.0888 3.98678 12.9016 3.51875C12.6979 3.00117 12.0757 1.5145 11.7508 1.16211C11.492 1.84487 11.2057 2.47258 11.1396 3.15534" fill="#104076" fill-opacity="0.34"/>
        <path fill-rule="evenodd" clip-rule="evenodd" d="M9.16829 12.7139C8.92602 11.8934 8.3754 11.1887 7.89086 10.6105C7.32372 9.93325 4.64772 7.33984 3.94293 7.33984C3.75572 7.60965 3.86585 8.29241 3.90439 8.63379C3.93743 8.93663 4.11362 9.713 4.09711 9.87819C3.6456 9.79009 2.18646 9.43219 1.83957 9.52029C1.6854 9.81762 2.22501 11.1942 2.39019 11.6126C2.4838 11.8604 2.58841 12.0201 2.61594 12.2403C2.18096 12.1633 1.74597 12.0862 1.30547 12.0036C0.562142 11.8659 -0.445488 11.4915 0.209747 12.356C0.31987 12.4991 0.446512 12.6643 0.567648 12.8075C1.90565 14.3988 3.41985 16.0561 5.64985 16.4746C8.03953 16.9206 9.86757 15.1091 9.16278 12.7194" fill="#104076" fill-opacity="0.34"/>
        <path fill-rule="evenodd" clip-rule="evenodd" d="M2.24707 9.93848C2.47833 11.0287 3.33179 13.044 4.02006 13.9415C6.74011 17.504 9.24542 15.5272 8.82695 13.4459C8.67828 12.7081 8.22677 12.0804 7.6211 11.6179C6.56942 10.8195 3.73924 10.0321 2.24707 9.93848Z" fill="#104076" fill-opacity="0.34"/>
        <path fill-rule="evenodd" clip-rule="evenodd" d="M5.96312 16.1219L4.91695 15.4557C4.11855 14.85 3.58996 14.0516 3.11092 13.1981C2.69796 12.4603 3.177 12.7466 0.699219 12.2676C0.836873 12.7631 2.25196 14.0956 2.74751 14.5416C3.5349 15.2464 4.66366 15.9402 5.96312 16.1219Z" fill="#104076" fill-opacity="0.34"/>
        <path fill-rule="evenodd" clip-rule="evenodd" d="M4.56448 9.98251C5.52255 10.2633 6.35398 10.4175 7.25149 10.9351C7.50477 11.0837 7.73052 11.2875 7.98381 11.3866C7.83514 11.0177 6.67885 9.8779 6.30993 9.54202C5.90248 9.1676 4.69112 8.10491 4.24512 7.92871C4.31119 8.65553 4.32771 9.3438 4.56448 9.98802" fill="#104076" fill-opacity="0.34"/>
        <path fill-rule="evenodd" clip-rule="evenodd" d="M10.0489 22.003C9.63591 21.2541 8.94213 20.687 8.34196 20.23C7.63717 19.6959 4.46011 17.7412 3.77734 17.8954C3.6507 18.1982 3.90949 18.8424 4.01961 19.1673C4.11872 19.4536 4.46011 20.1749 4.47663 20.3401C4.01411 20.3511 2.51643 20.3236 2.19707 20.4833C2.10897 20.8081 2.9404 22.0305 3.18818 22.4049C3.33685 22.6252 3.469 22.7628 3.54608 22.9665C3.10559 22.9886 2.65959 23.0051 2.21909 23.0216C1.46475 23.0491 0.396551 22.906 1.22798 23.6053C1.36564 23.7209 1.52532 23.8585 1.67949 23.9687C3.33134 25.2296 5.1704 26.5125 7.43895 26.4354C9.86717 26.3528 11.2602 24.1834 10.0489 22.003Z" fill="#104076" fill-opacity="0.34"/>
        <path fill-rule="evenodd" clip-rule="evenodd" d="M2.68715 20.7965C3.14967 21.8096 4.42159 23.5936 5.28606 24.3149C8.71641 27.2002 10.7317 24.7224 9.8672 22.7787C9.56436 22.0904 8.98621 21.5729 8.29243 21.259C7.08658 20.7084 4.1628 20.5542 2.68164 20.791" fill="#104076" fill-opacity="0.34"/>
        <path fill-rule="evenodd" clip-rule="evenodd" d="M7.66525 26.0278L6.49794 25.6038C5.58942 25.1853 4.89565 24.5246 4.24041 23.7923C3.67878 23.1591 4.20737 23.3353 1.68555 23.4123C1.93332 23.8694 3.59619 24.8605 4.17984 25.1853C5.10488 25.7029 6.35478 26.1324 7.65974 26.0223" fill="#104076" fill-opacity="0.34"/>
        <path fill-rule="evenodd" clip-rule="evenodd" d="M4.96165 20.3402C5.95826 20.4062 6.80071 20.3732 7.79182 20.6815C8.07263 20.7696 8.33693 20.9238 8.60123 20.9624C8.37547 20.632 6.99893 19.773 6.56394 19.5252C6.08491 19.2499 4.66982 18.4736 4.19629 18.3965C4.42204 19.0903 4.58723 19.7565 4.96165 20.3347" fill="#104076" fill-opacity="0.34"/>
        <path fill-rule="evenodd" clip-rule="evenodd" d="M18.419 38.6863C17.6426 35.0082 13.5405 32.0239 10.3965 30.0361C14.8455 30.5812 19.2284 33.3784 19.4431 37.0565L19.4211 37.8494C19.3936 38.1247 18.5566 38.4496 18.419 38.6863Z" fill="#104076" fill-opacity="0.34"/>
        <path fill-rule="evenodd" clip-rule="evenodd" d="M43.2844 38.5983C44.3581 45.5526 49.154 42.5352 49.3907 50.3815C57.9639 43.7465 57.7546 31.6164 46.0045 31.1594C50.492 29.5186 50.6902 25.455 50.3268 20.7693C50.0735 17.5261 48.5979 4.08007 52.7825 0C39.9862 0.291827 33.1971 19.3212 39.0942 30.0582C25.6977 26.0938 10.2914 38.4056 12.5214 43.0197C17.5541 36.8143 33.1971 46.7474 43.2899 38.5983" fill="#104076" fill-opacity="0.34"/>
        <path fill-rule="evenodd" clip-rule="evenodd" d="M41.0822 33.076C41.1208 33.6982 41.0271 34.3259 40.8014 34.9096C40.8014 34.9096 41.2639 36.3027 42.4863 35.1188C42.4863 35.1188 42.7781 34.8545 42.668 33.924C43.0314 34.2764 43.3618 34.6728 43.6426 35.0913C43.8353 35.5098 45.6523 35.7575 44.7603 34.1442C44.43 33.7533 44.039 33.4174 43.604 33.1421C43.604 33.1421 44.496 33.6432 44.9971 33.4339C45.4982 33.2247 46.5719 32.3052 45.2173 32.0409C44.7273 31.9748 44.2317 31.9363 43.7417 31.9308C44.43 31.7546 45.0907 31.4682 45.6909 31.0938C46.5278 30.4276 46.2085 30.1633 46.1534 29.8439C46.0983 29.5246 45.6358 29.2052 45.0962 29.6072C44.5511 30.0091 43.4664 31.1103 43.1856 31.237C43.1856 31.237 43.0589 30.9892 43.5049 30.4166C43.9509 29.8439 44.7053 28.8473 44.2978 28.4398C43.8959 28.0379 43.0975 27.8397 42.9048 28.3573C42.6845 29.0841 42.3982 29.7944 42.0568 30.4716C42.0623 30.2349 41.9907 30.0036 41.8586 29.8109C41.7209 29.6182 41.5282 29.475 41.3025 29.3979C40.5096 29.1061 40.2838 29.9981 40.3829 30.3009C40.482 30.6093 40.9831 31.2039 40.7298 31.8702C39.546 32.9714 38.0263 31.8702 37.4647 32.7622C37.2004 33.1531 37.4647 34.1553 38.1199 34.0561C38.1199 34.0561 39.513 33.6267 40.3113 33.3458C40.5756 33.2853 40.8344 33.1917 41.0767 33.065" fill="#104076" fill-opacity="0.34"/>
    </g>
    <defs>
        <clipPath id="clip0_1_10270">
            <rect width="275.777" height="50.3815" fill="white"/>
        </clipPath>
    </defs>
</svg>
