<svg width="262" height="52" viewBox="0 0 262 52" fill="none" xmlns="http://www.w3.org/2000/svg">
    <path d="M129.626 9.77422C127.549 15.1498 124.494 23.8241 122.662 28.9554C118.508 40.8062 117.897 41.5392 112.888 41.5392C107.512 41.5392 107.512 40.1953 113.01 25.2902L117.164 13.5616L102.87 14.2946C85.5212 15.1498 84.666 15.7607 79.6569 30.5437L76.1139 40.9284L70.4939 41.2949C67.3174 41.5392 64.7518 41.1727 64.7518 40.5619C64.7518 39.951 66.8287 33.7202 69.5166 26.7563L74.1591 14.0503L64.0188 13.6838C58.3988 13.5616 53.7562 13.0729 53.7562 12.7064C53.7562 12.3399 54.3671 10.9959 54.9779 9.65204C56.1997 7.45293 55.8332 7.33075 45.815 7.33075C40.0728 7.33075 35.4302 6.96423 35.4302 6.59771C35.4302 6.23119 36.0411 4.88729 36.652 3.54338C37.8737 1.34426 37.385 1.22209 18.9368 1.22209H0V6.10902V10.9959H10.9956C20.6473 10.9959 21.9912 11.2403 21.9912 13.0729C21.9912 14.2946 18.9368 23.2133 15.2717 32.9871L8.6743 50.7022L13.6834 51.0688C16.6156 51.3131 19.059 50.8244 19.5477 50.0914C20.0364 49.2362 23.0907 41.5392 26.2672 32.865L32.0094 17.1046H36.7741C39.3398 17.1046 41.5389 17.4711 41.5389 17.9598C41.5389 18.5707 38.8511 26.2676 35.5524 35.0641L29.5659 51.3131H34.8194H40.0728L44.8376 38.1184L49.7245 25.0459L54.8558 24.6793C60.8423 24.1907 60.8423 22.7246 54.4893 39.7066L50.4575 50.7022L58.8875 51.0688C66.7066 51.4353 67.5618 51.1909 69.7609 48.2588C72.8152 44.4714 73.6704 44.4714 77.4578 48.2588C81.4895 52.2905 86.6208 52.2905 90.4082 48.2588C93.9512 44.4714 94.9286 44.4714 97.9829 48.2588C101.282 52.5348 108.856 52.5348 112.155 48.2588C115.332 44.2271 117.653 44.2271 116.065 48.2588C114.965 51.1909 115.087 51.3131 120.218 51.3131C125.594 51.3131 125.716 51.1909 127.793 45.4488C128.893 42.2723 130.725 37.7519 131.703 35.4306C133.413 31.1545 133.413 31.1545 134.513 34.2089C135.001 35.9193 136.345 40.4397 137.445 44.2271L139.4 51.3131H144.409C148.196 51.3131 150.395 50.4579 153.694 47.5257C157.848 43.8605 158.092 43.7384 158.947 46.1818C160.291 49.7249 163.834 51.3131 170.065 51.3131C174.463 51.3131 176.174 50.5801 178.984 47.6479C182.893 43.6162 184.482 43.0053 184.482 45.6931C184.482 48.7475 189.613 51.3131 195.844 51.3131C200.731 51.3131 202.319 50.8244 204.274 48.2588C207.206 44.4714 208.061 44.4714 211.848 48.2588C216.124 52.4127 221.5 52.2905 226.02 47.8923L229.441 44.4714L232.007 47.1592C234.817 50.0914 241.414 51.3131 253.632 51.3131H261.451V45.8153V40.3175H251.677C246.301 40.3175 241.903 40.1953 241.903 39.951C241.903 39.5845 247.889 22.9689 250.333 16.7381L251.677 13.1951L237.016 13.6838C225.165 13.9281 221.989 14.4168 220.278 16.1272C219.179 17.349 216.491 23.0911 214.414 28.9554L210.627 39.7066L203.663 40.0732C195.355 40.5619 194.988 39.5845 199.753 28.8332C202.441 22.7246 203.174 21.9915 206.473 21.9915C209.527 21.9915 210.26 21.3807 211.115 17.9598C212.093 14.2946 211.971 14.0503 208.672 13.6838C206.839 13.4394 205.251 13.0729 205.251 12.8285C205.251 12.5842 206.351 9.52987 207.694 6.10902L210.138 0.000362396H204.762C199.509 0.000362396 199.509 0.000362396 197.065 6.35337C194.988 11.9733 194.133 12.8285 190.957 13.1951C188.147 13.4394 186.803 14.539 185.337 17.8376L183.26 21.9915H186.925C191.445 21.9915 191.445 22.9689 187.658 33.1093L184.726 40.9284L177.884 41.2949C169.454 41.7836 169.454 41.5392 175.319 25.168L179.595 13.4394H174.219H168.843L165.056 23.9463C162.979 29.6884 161.269 34.8197 161.269 35.5528C161.269 38.2406 156.26 41.5392 152.106 41.5392C147.463 41.5392 145.386 39.0958 145.386 33.3536C145.386 30.788 147.463 27.978 153.572 21.7472L161.757 13.4394H154.916C148.074 13.4394 147.952 13.4394 141.843 20.4033C138.422 24.1907 135.368 27.0006 135.001 26.6341C134.635 26.3898 136.345 20.892 138.667 14.539C140.988 8.18597 142.943 2.32165 142.943 1.46644C142.943 0.611225 141.232 0.000362396 138.178 0.000362396H133.413L129.626 9.77422ZM99.6933 32.6206C97.0055 40.684 96.7612 40.9284 92.4851 41.2949C88.3312 41.6614 87.9647 41.4171 87.9647 38.6071C87.9647 37.0188 89.0643 33.1093 90.4082 30.055C92.6073 24.6793 92.9738 24.435 97.6164 24.435H102.503L99.6933 32.6206ZM236.527 26.5119C236.161 27.7337 234.817 31.3989 233.473 34.8197C231.274 40.684 231.03 40.9284 226.02 41.2949C221.011 41.6614 220.889 41.5392 221.622 38.7293C221.989 37.0188 223.455 33.1093 224.799 30.055C226.998 24.6793 227.364 24.435 232.129 24.435C236.405 24.435 237.016 24.8015 236.527 26.5119Z" fill="#104076" fill-opacity="0.34"/>
</svg>
